<svg width="24" height="24" viewBox="0 0 24 24" fill="none" xmlns="http://www.w3.org/2000/svg">
<path d="M12 1.5C12.1989 1.5 12.3897 1.57902 12.5303 1.71967C12.671 1.86032 12.75 2.05109 12.75 2.25V10.1145L13.5 10.65V7.08C13.5 5.655 14.655 4.5 16.08 4.5C16.866 4.5 17.6145 4.905 18.2445 5.388C18.891 5.886 19.515 6.5475 20.0685 7.2315C21.1725 8.5935 22.089 10.1505 22.4385 10.9515C22.7025 11.559 23.028 12.6915 23.2725 13.968C23.52 15.2535 23.697 16.7535 23.6325 18.1065C23.5725 19.407 23.2845 20.7915 22.377 21.6015C21.372 22.5015 19.944 22.4355 18.2655 21.5955L15.573 20.25C14.9501 19.9386 14.4262 19.4598 14.0601 18.8674C13.694 18.2751 13.5 17.5924 13.5 16.896V12.4935L12 11.421L10.5 12.4935V10.821C10.35 10.821 10.197 10.866 10.065 10.9605L6.315 13.6395C6.23135 13.6952 6.15975 13.7671 6.10444 13.851C6.04914 13.9349 6.01126 14.0291 5.99305 14.1279C5.97485 14.2268 5.97669 14.3282 5.99847 14.4263C6.02025 14.5244 6.06152 14.6172 6.11984 14.699C6.17815 14.7809 6.25232 14.8501 6.33793 14.9028C6.42355 14.9554 6.51887 14.9903 6.61822 15.0053C6.71758 15.0204 6.81895 15.0153 6.91631 14.9904C7.01368 14.9656 7.10505 14.9214 7.185 14.8605L10.5 12.4935V16.896C10.5 17.5924 10.306 18.2751 9.93989 18.8674C9.57375 19.4598 9.04989 19.9386 8.427 20.25L5.7345 21.5955C4.0545 22.4355 2.6295 22.5 1.623 21.6015C0.7155 20.7915 0.426 19.407 0.366 18.1065C0.303 16.7535 0.48 15.2535 0.726 13.968C0.972 12.69 1.296 11.559 1.563 10.95C1.911 10.1505 2.8275 8.5935 3.9315 7.2315C4.4865 6.5475 5.109 5.886 5.7555 5.388C6.3855 4.905 7.134 4.5 7.92 4.5C9.345 4.5 10.5 5.655 10.5 7.08V10.65L11.25 10.1145V2.25C11.25 2.05109 11.329 1.86032 11.4697 1.71967C11.6103 1.57902 11.8011 1.5 12 1.5ZM16.815 14.8605C16.895 14.9214 16.9863 14.9656 17.0837 14.9904C17.1811 15.0153 17.2824 15.0204 17.3818 15.0053C17.4811 14.9903 17.5765 14.9554 17.6621 14.9028C17.7477 14.8501 17.8218 14.7809 17.8802 14.699C17.9385 14.6172 17.9797 14.5244 18.0015 14.4263C18.0233 14.3282 18.0251 14.2268 18.0069 14.1279C17.9887 14.0291 17.9509 13.9349 17.8956 13.851C17.8403 13.7671 17.7686 13.6952 17.685 13.6395L13.935 10.9605C13.8081 10.8697 13.656 10.8209 13.5 10.821V12.4935L16.815 14.862V14.8605Z" fill="#887EEF"/>
</svg>
