<svg width="20" height="20" viewBox="0 0 20 20" fill="none" xmlns="http://www.w3.org/2000/svg">
<path opacity="0.4" d="M17.0833 5.83329V12.5H5.29163C3.98329 12.5 2.91663 13.5666 2.91663 14.875V5.83329C2.91663 2.49996 3.74996 1.66663 7.08329 1.66663H12.9166C16.25 1.66663 17.0833 2.49996 17.0833 5.83329Z" fill="#00003F"/>
<path d="M17.0833 12.5V15.4167C17.0833 17.025 15.775 18.3333 14.1666 18.3333H5.83329C4.22496 18.3333 2.91663 17.025 2.91663 15.4167V14.875C2.91663 13.5667 3.98329 12.5 5.29163 12.5H17.0833Z" fill="#00003F"/>
<path d="M13.3333 6.45837H6.66663C6.32496 6.45837 6.04163 6.17504 6.04163 5.83337C6.04163 5.49171 6.32496 5.20837 6.66663 5.20837H13.3333C13.675 5.20837 13.9583 5.49171 13.9583 5.83337C13.9583 6.17504 13.675 6.45837 13.3333 6.45837Z" fill="#00003F"/>
<path d="M10.8333 9.375H6.66663C6.32496 9.375 6.04163 9.09167 6.04163 8.75C6.04163 8.40833 6.32496 8.125 6.66663 8.125H10.8333C11.175 8.125 11.4583 8.40833 11.4583 8.75C11.4583 9.09167 11.175 9.375 10.8333 9.375Z" fill="#00003F"/>
</svg>
