<svg width="31" height="30" viewBox="0 0 31 30" fill="none" xmlns="http://www.w3.org/2000/svg">
<path d="M28.9183 11.1798V27.8798C28.9183 29.0398 28.0183 29.9998 26.9183 29.9998H16.9583H5.19831C3.99831 29.9998 3.01831 28.9598 3.01831 27.6998V11.3798C3.01831 10.0998 3.99831 9.07977 5.19831 9.07977H26.9183C28.0383 9.05977 28.9183 10.0198 28.9183 11.1798Z" fill="#022F8E"/>
<path d="M26.2783 11.7398L21.7983 23.4798C21.4183 24.4598 20.2183 24.8598 19.3383 24.2598C18.9383 23.9998 18.6783 23.5598 18.6183 23.0998L18.1983 19.6798C18.1983 19.6798 18.1383 17.9598 17.4583 16.6198C16.8383 15.4198 15.1183 15.3998 14.5183 16.6198C13.9383 17.7598 13.7783 19.5798 13.7783 19.5798L13.3383 23.0998C13.2783 23.5798 13.0183 23.9998 12.6183 24.2598C11.7383 24.8398 10.5383 24.4598 10.1583 23.4798L5.6783 11.7398C4.9983 9.93976 4.8783 7.97976 5.3383 6.11976L6.2183 2.57976C6.6583 0.919761 8.3183 -0.100239 9.9783 0.299761L11.6383 0.679761C12.2783 0.819761 12.9583 0.759761 13.5583 0.499761C15.1383 -0.160239 16.8183 -0.160239 18.3983 0.499761C18.9983 0.759761 19.6783 0.819761 20.3183 0.679761L21.9783 0.299761C23.6383 -0.0802393 25.2983 0.939761 25.7183 2.59976L26.5983 6.13976C27.0783 7.99976 26.9583 9.95976 26.2783 11.7398Z" fill="#E8E8E8"/>
<path opacity="0.1" d="M12.8583 23.4807C12.8983 23.6007 12.9783 23.7207 13.0383 23.8407C12.9183 24.0007 12.7783 24.1607 12.5983 24.2607C11.7183 24.8407 10.5183 24.4607 10.1383 23.4807L5.6783 11.7407C4.9983 9.94069 4.8783 7.98069 5.3383 6.12069L6.2183 2.58069C6.6583 0.920691 8.3183 -0.0993093 9.9783 0.300691L10.7383 0.480691C9.8783 0.860691 9.1783 1.62069 8.9383 2.60069L8.0583 6.14069C7.5783 8.00069 7.6983 9.96069 8.3983 11.7407L12.8583 23.4807ZM20.7183 23.1007L20.2983 19.6807C20.2983 19.6807 20.2383 17.9607 19.5583 16.6207C19.1383 15.8207 17.1783 15.4807 16.0183 15.7207C16.5983 15.7407 17.1783 16.0407 17.4783 16.6207C18.1783 17.9407 18.2183 19.6807 18.2183 19.6807L18.6383 23.1007C18.6983 23.5807 18.9583 24.0007 19.3583 24.2607C19.9783 24.6807 20.7783 24.6007 21.3183 24.1607C20.9783 23.9207 20.7583 23.5207 20.7183 23.1007Z" fill="black"/>
<path d="M21.1184 11.9198C20.1584 11.0598 21.0984 9.67977 20.7384 7.07977C20.4984 5.33977 19.9384 4.83977 20.3384 4.11977C20.8184 3.25977 22.2784 2.83977 23.2584 3.27977C25.1184 4.11977 24.6184 7.77977 24.5584 8.13977C24.2984 9.93977 23.2184 12.2798 21.9584 12.2798C21.5384 12.2798 21.1984 11.9798 21.1184 11.9198Z" fill="#FFF5F5"/>
</svg>
