<svg width="20" height="20" viewBox="0 0 20 20" fill="none" xmlns="http://www.w3.org/2000/svg">
<path opacity="0.4" d="M10 18.25C14.6024 18.25 18.3334 14.5191 18.3334 9.91671C18.3334 5.31433 14.6024 1.58337 10 1.58337C5.39765 1.58337 1.66669 5.31433 1.66669 9.91671C1.66669 14.5191 5.39765 18.25 10 18.25Z" fill="#00003F"/>
<path d="M11.8833 10L10.625 9.55833V6.73333H10.925C11.6 6.73333 12.15 7.325 12.15 8.05C12.15 8.39167 12.4333 8.675 12.775 8.675C13.1167 8.675 13.4 8.39167 13.4 8.05C13.4 6.63333 12.2917 5.48333 10.925 5.48333H10.625V5C10.625 4.65833 10.3417 4.375 10 4.375C9.65834 4.375 9.37501 4.65833 9.37501 5V5.48333H8.83334C7.60001 5.48333 6.59167 6.525 6.59167 7.8C6.59167 9.29167 7.45834 9.76667 8.11667 10L9.37501 10.4417V13.2583H9.07501C8.40001 13.2583 7.85001 12.6667 7.85001 11.9417C7.85001 11.6 7.56668 11.3167 7.22501 11.3167C6.88334 11.3167 6.60001 11.6 6.60001 11.9417C6.60001 13.3583 7.70834 14.5083 9.07501 14.5083H9.37501V15C9.37501 15.3417 9.65834 15.625 10 15.625C10.3417 15.625 10.625 15.3417 10.625 15V14.5167H11.1667C12.4 14.5167 13.4083 13.475 13.4083 12.2C13.4 10.7 12.5333 10.225 11.8833 10ZM8.53334 8.825C8.10834 8.675 7.85001 8.53333 7.85001 7.80833C7.85001 7.21667 8.29167 6.74167 8.84167 6.74167H9.38334V9.125L8.53334 8.825ZM11.1667 13.2667H10.625V10.8833L11.4667 11.175C11.8917 11.325 12.15 11.4667 12.15 12.1917C12.15 12.7833 11.7083 13.2667 11.1667 13.2667Z" fill="#00003F"/>
</svg>
