<svg width="25" height="24" viewBox="0 0 25 24" fill="none" xmlns="http://www.w3.org/2000/svg">
<path d="M7.72852 5.25C7.72852 4.05653 8.20263 2.91193 9.04654 2.06802C9.89045 1.22411 11.035 0.75 12.2285 0.75C13.422 0.75 14.5666 1.22411 15.4105 2.06802C16.2544 2.91193 16.7285 4.05653 16.7285 5.25V13.281C17.4923 14.147 17.9899 15.215 18.1617 16.3568C18.3335 17.4987 18.1722 18.6658 17.6971 19.7183C17.2221 20.7707 16.4534 21.6637 15.4834 22.2901C14.5134 22.9164 13.3832 23.2496 12.2285 23.2496C11.0738 23.2496 9.94368 22.9164 8.97366 22.2901C8.00364 21.6637 7.23497 20.7707 6.75989 19.7183C6.28481 18.6658 6.1235 17.4987 6.29531 16.3568C6.46713 15.215 6.96477 14.147 7.72852 13.281V5.25ZM12.2285 3C11.6318 3 11.0595 3.23705 10.6375 3.65901C10.2156 4.08097 9.97852 4.65326 9.97852 5.25V14.2125L9.63352 14.5425C9.09343 15.0605 8.72069 15.7283 8.56322 16.4598C8.40576 17.1914 8.47079 17.9534 8.74994 18.6477C9.02909 19.3421 9.5096 19.937 10.1296 20.356C10.7497 20.775 11.4809 20.9989 12.2293 20.9989C12.9776 20.9989 13.7088 20.775 14.3289 20.356C14.9489 19.937 15.4294 19.3421 15.7086 18.6477C15.9878 17.9534 16.0528 17.1914 15.8953 16.4598C15.7379 15.7283 15.3651 15.0605 14.825 14.5425L14.4785 14.214V5.25C14.4785 4.65326 14.2415 4.08097 13.8195 3.65901C13.3976 3.23705 12.8253 3 12.2285 3ZM12.9785 9C12.9785 8.80109 12.8995 8.61032 12.7588 8.46967C12.6182 8.32902 12.4274 8.25 12.2285 8.25C12.0296 8.25 11.8388 8.32902 11.6982 8.46967C11.5575 8.61032 11.4785 8.80109 11.4785 9V15.1275C10.9781 15.3044 10.5564 15.6526 10.2878 16.1104C10.0192 16.5682 9.92117 17.1062 10.0109 17.6293C10.1007 18.1524 10.3725 18.627 10.7783 18.9691C11.1841 19.3112 11.6978 19.4988 12.2285 19.4988C12.7593 19.4988 13.273 19.3112 13.6788 18.9691C14.0846 18.627 14.3564 18.1524 14.4461 17.6293C14.5359 17.1062 14.4378 16.5682 14.1692 16.1104C13.9007 15.6526 13.4789 15.3044 12.9785 15.1275V9Z" fill="#FF7F3F"/>
</svg>
