<svg width="31" height="30" viewBox="0 0 31 30" fill="none" xmlns="http://www.w3.org/2000/svg">
<g clip-path="url(#clip0_1332_4532)">
<path d="M0.99907 24.3184C1.01907 23.2184 1.11907 22.1184 1.27907 21.0384C1.63907 18.6384 3.21907 17.5784 5.63907 17.9784C7.11907 18.2184 8.49907 18.7384 9.81907 19.5784C11.7391 20.8184 14.1991 20.0384 15.5191 18.0184C16.6991 16.1984 17.2591 14.1984 17.2791 11.9384C17.2791 10.9384 16.9991 10.1584 16.4191 9.4584C15.3391 8.1584 14.3591 6.7184 13.8791 4.9984C13.4991 3.6784 13.7391 3.0584 15.1591 2.1784C16.2391 1.5184 16.7591 1.2584 17.2791 2.6784C17.5591 3.4384 17.9591 4.1184 18.4991 4.6784C18.8791 5.0784 19.1591 5.2384 19.2991 4.3984C19.4591 3.3584 19.7191 2.3384 20.3791 1.5384C21.9991 -0.421596 23.9791 -0.221596 25.9191 0.478404C28.6391 1.4784 30.0191 3.9984 30.6391 7.0184C31.6591 12.0184 30.4391 16.5384 27.9591 20.6384C25.6991 24.3784 22.7191 27.1984 19.0991 29.0984C16.0991 30.6784 13.1991 30.1184 10.8391 27.4384C9.49907 25.9184 8.15907 24.4784 6.39907 23.5984C5.31907 23.0584 5.41907 25.3984 5.33907 26.1184C5.27907 26.6584 5.33907 27.4384 4.95907 27.8584C4.41907 28.4584 1.99907 28.6384 1.45907 28.0584C1.03907 27.5984 0.99907 26.7984 0.99907 26.1784C0.97907 25.5584 0.97907 24.9384 0.99907 24.3184Z" fill="#022F8E"/>
<path opacity="0.1" d="M3.11875 28.0601C4.00241 28.0601 4.71875 27.7646 4.71875 27.4001C4.71875 27.0356 4.00241 26.7401 3.11875 26.7401C2.2351 26.7401 1.51875 27.0356 1.51875 27.4001C1.51875 27.7646 2.2351 28.0601 3.11875 28.0601Z" fill="black"/>
<path opacity="0.1" d="M15.7904 3.75159C16.5175 3.24941 16.9593 2.62865 16.7773 2.36509C16.5953 2.10152 15.8583 2.29496 15.1312 2.79714C14.4041 3.29932 13.9623 3.92008 14.1443 4.18364C14.3264 4.44721 15.0634 4.25377 15.7904 3.75159Z" fill="black"/>
<path d="M2.17848 23.3396C2.17848 23.3396 3.35848 22.9796 4.71848 23.6996C4.71848 23.6996 4.67848 21.9996 5.89848 22.1596C7.11848 22.3196 9.93848 24.2196 11.4185 26.0796C12.8985 27.9396 15.1985 29.0396 17.2585 28.5196C19.3185 27.9996 25.2785 23.3596 26.4985 20.0996C27.7185 16.8596 27.3985 16.6996 25.9785 16.9196C24.5585 17.1396 24.1185 17.2796 23.0185 16.2596C21.9185 15.2396 20.9585 16.5596 19.8785 15.8196C18.7985 15.0796 18.0785 15.0796 17.7585 16.1796C17.4385 17.2796 16.6585 19.9396 13.7185 21.1196C10.7785 22.2996 9.85848 21.4596 7.81848 19.9396C5.77848 18.4196 3.19848 18.9996 2.69848 20.4796C2.19848 21.9596 2.17848 23.3396 2.17848 23.3396Z" fill="#94C6E7"/>
<path d="M12.8987 24.8998C13.3736 24.8998 13.7587 24.5148 13.7587 24.0398C13.7587 23.5648 13.3736 23.1798 12.8987 23.1798C12.4237 23.1798 12.0387 23.5648 12.0387 24.0398C12.0387 24.5148 12.4237 24.8998 12.8987 24.8998Z" fill="white"/>
<path d="M20.0187 24.2798C20.6262 24.2798 21.1187 23.7873 21.1187 23.1798C21.1187 22.5723 20.6262 22.0798 20.0187 22.0798C19.4112 22.0798 18.9187 22.5723 18.9187 23.1798C18.9187 23.7873 19.4112 24.2798 20.0187 24.2798Z" fill="white"/>
<path d="M21.6986 18.46C22.284 18.46 22.7586 17.9854 22.7586 17.4C22.7586 16.8145 22.284 16.34 21.6986 16.34C21.1132 16.34 20.6386 16.8145 20.6386 17.4C20.6386 17.9854 21.1132 18.46 21.6986 18.46Z" fill="white"/>
<path d="M15.8186 22.8599C16.0726 22.8599 16.2786 22.654 16.2786 22.3999C16.2786 22.1459 16.0726 21.9399 15.8186 21.9399C15.5645 21.9399 15.3586 22.1459 15.3586 22.3999C15.3586 22.654 15.5645 22.8599 15.8186 22.8599Z" fill="white"/>
<path d="M23.5186 20.9397C23.7726 20.9397 23.9786 20.7337 23.9786 20.4797C23.9786 20.2256 23.7726 20.0197 23.5186 20.0197C23.2645 20.0197 23.0586 20.2256 23.0586 20.4797C23.0586 20.7337 23.2645 20.9397 23.5186 20.9397Z" fill="white"/>
<path d="M20.6386 14.7397C20.8926 14.7397 21.0986 14.5338 21.0986 14.2797C21.0986 14.0257 20.8926 13.8197 20.6386 13.8197C20.3845 13.8197 20.1786 14.0257 20.1786 14.2797C20.1786 14.5338 20.3845 14.7397 20.6386 14.7397Z" fill="white"/>
<path d="M19.5388 20.0201C19.7266 20.0201 19.8788 19.8679 19.8788 19.6801C19.8788 19.4923 19.7266 19.3401 19.5388 19.3401C19.3511 19.3401 19.1988 19.4923 19.1988 19.6801C19.1988 19.8679 19.3511 20.0201 19.5388 20.0201Z" fill="white"/>
<path d="M17.6991 19.1404C17.7876 19.1404 17.8594 19.0686 17.8594 18.9801C17.8594 18.8915 17.7876 18.8197 17.6991 18.8197C17.6105 18.8197 17.5387 18.8915 17.5387 18.9801C17.5387 19.0686 17.6105 19.1404 17.6991 19.1404Z" fill="white"/>
<path d="M22.3592 23.0202C22.4478 23.0202 22.5196 22.9484 22.5196 22.8598C22.5196 22.7713 22.4478 22.6995 22.3592 22.6995C22.2706 22.6995 22.1988 22.7713 22.1988 22.8598C22.1988 22.9484 22.2706 23.0202 22.3592 23.0202Z" fill="white"/>
<path d="M23.0592 11.5405C23.1478 11.5405 23.2196 11.4687 23.2196 11.3801C23.2196 11.2915 23.1478 11.2197 23.0592 11.2197C22.9706 11.2197 22.8988 11.2915 22.8988 11.3801C22.8988 11.4687 22.9706 11.5405 23.0592 11.5405Z" fill="white"/>
<path d="M14.9791 25.0607C15.0677 25.0607 15.1395 24.9889 15.1395 24.9004C15.1395 24.8118 15.0677 24.74 14.9791 24.74C14.8905 24.74 14.8187 24.8118 14.8187 24.9004C14.8187 24.9889 14.8905 25.0607 14.9791 25.0607Z" fill="white"/>
<path d="M25.3986 14.6201C25.5864 14.6201 25.7386 14.4678 25.7386 14.2801C25.7386 14.0923 25.5864 13.9401 25.3986 13.9401C25.2108 13.9401 25.0586 14.0923 25.0586 14.2801C25.0586 14.4678 25.2108 14.6201 25.3986 14.6201Z" fill="white"/>
<path d="M16.9388 26.2795C17.1266 26.2795 17.2788 26.1273 17.2788 25.9395C17.2788 25.7517 17.1266 25.5995 16.9388 25.5995C16.7511 25.5995 16.5988 25.7517 16.5988 25.9395C16.5988 26.1273 16.7511 26.2795 16.9388 26.2795Z" fill="white"/>
<path opacity="0.1" d="M25.8987 0.499569C24.8187 0.0995688 23.7387 -0.120431 22.6987 0.0795688C24.7587 0.399569 28.4387 1.79957 29.1187 7.71957C30.0787 16.0596 28.6187 22.9596 18.3387 29.4596C18.5787 29.3596 18.8187 29.2396 19.0787 29.1196C22.6987 27.2196 25.6787 24.3996 27.9387 20.6596C30.4187 16.5596 31.6387 12.0396 30.6187 7.03957C29.9987 4.01957 28.6187 1.49957 25.8987 0.499569Z" fill="black"/>
</g>
<defs>
<clipPath id="clip0_1332_4532">
<rect width="30" height="30" fill="white" transform="translate(0.978516)"/>
</clipPath>
</defs>
</svg>
