<svg width="34" height="42" viewBox="0 0 34 42" fill="none" xmlns="http://www.w3.org/2000/svg">
<path d="M33.8735 28.1603C33.8735 35.0466 28.291 40.629 21.4047 40.629C14.5184 40.629 11.4759 33.9018 11.4759 27.0155C11.4759 20.1292 14.5184 15.6915 21.4047 15.6915C28.291 15.6915 33.8735 21.274 33.8735 28.1603Z" fill="url(#paint0_linear_1332_4623)"/>
<g filter="url(#filter0_b_1332_4623)">
<path d="M0.623535 6C0.623535 2.68629 3.30983 0 6.62353 0H19.0106C22.3243 0 25.0106 2.68629 25.0106 6V36C25.0106 39.3137 22.3243 42 19.0106 42H6.62354C3.30983 42 0.623535 39.3137 0.623535 36V6Z" fill="#EDEDED" fill-opacity="0.37"/>
</g>
<path d="M10.1074 9.48409C10.1074 10.9806 8.89423 12.1938 7.39772 12.1938C5.9012 12.1938 4.68804 10.9806 4.68804 9.48409C4.68804 7.98758 5.9012 6.77441 7.39772 6.77441C8.89423 6.77441 10.1074 7.98758 10.1074 9.48409Z" fill="white"/>
<path d="M19.5913 9.48414C19.5913 10.9807 18.3781 12.1938 16.8816 12.1938C15.3851 12.1938 14.1719 10.9807 14.1719 9.48414C14.1719 7.98763 15.3851 6.77446 16.8816 6.77446C18.3781 6.77446 19.5913 7.98763 19.5913 9.48414Z" fill="white"/>
<path d="M10.1074 20.3229C10.1074 21.8194 8.89421 23.0325 7.3977 23.0325C5.90118 23.0325 4.68802 21.8194 4.68802 20.3229C4.68802 18.8264 5.90118 17.6132 7.3977 17.6132C8.89421 17.6132 10.1074 18.8264 10.1074 20.3229Z" fill="white"/>
<path d="M19.5913 20.3229C19.5913 21.8194 18.3781 23.0325 16.8816 23.0325C15.3851 23.0325 14.1719 21.8194 14.1719 20.3229C14.1719 18.8264 15.3851 17.6132 16.8816 17.6132C18.3781 17.6132 19.5913 18.8264 19.5913 20.3229Z" fill="white"/>
<path d="M10.1074 31.1615C10.1074 32.658 8.89421 33.8712 7.3977 33.8712C5.90118 33.8712 4.68802 32.658 4.68802 31.1615C4.68802 29.665 5.90118 28.4518 7.3977 28.4518C8.89421 28.4518 10.1074 29.665 10.1074 31.1615Z" fill="white"/>
<path d="M19.5913 31.1615C19.5913 32.658 18.3781 33.8712 16.8816 33.8712C15.3851 33.8712 14.1719 32.658 14.1719 31.1615C14.1719 29.665 15.3851 28.4518 16.8816 28.4518C18.3781 28.4518 19.5913 29.665 19.5913 31.1615Z" fill="white"/>
<defs>
<filter id="filter0_b_1332_4623" x="-24.3765" y="-25" width="74.3871" height="92" filterUnits="userSpaceOnUse" color-interpolation-filters="sRGB">
<feFlood flood-opacity="0" result="BackgroundImageFix"/>
<feGaussianBlur in="BackgroundImageFix" stdDeviation="12.5"/>
<feComposite in2="SourceAlpha" operator="in" result="effect1_backgroundBlur_1332_4623"/>
<feBlend mode="normal" in="SourceGraphic" in2="effect1_backgroundBlur_1332_4623" result="shape"/>
</filter>
<linearGradient id="paint0_linear_1332_4623" x1="11.4759" y1="27.329" x2="33.3368" y2="27.4166" gradientUnits="userSpaceOnUse">
<stop stop-color="#47C2FF"/>
<stop offset="1" stop-color="#63CBFE" stop-opacity="0.65"/>
</linearGradient>
</defs>
</svg>
