<svg width="30" height="30" viewBox="0 0 30 30" fill="none" xmlns="http://www.w3.org/2000/svg">
<path d="M15.2014 26.1799C22.127 26.1799 27.7414 20.5655 27.7414 13.6399C27.7414 6.71421 22.127 1.09985 15.2014 1.09985C8.2757 1.09985 2.66134 6.71421 2.66134 13.6399C2.66134 20.5655 8.2757 26.1799 15.2014 26.1799Z" fill="#93C6E7"/>
<path d="M3.68123 25.4397C4.72124 25.7997 5.38124 26.6397 5.14124 27.3397C4.90124 28.0397 3.86123 28.2997 2.82123 27.9397C1.78123 27.5797 1.12123 26.7397 1.36123 26.0397C1.60123 25.3597 2.64123 25.0797 3.68123 25.4397Z" fill="#FFC49C"/>
<path d="M14.0214 26.0397C14.2614 26.7397 13.6014 27.5797 12.5614 27.9397C11.5214 28.2997 10.4814 28.0197 10.2414 27.3397C10.0014 26.6397 10.6614 25.7997 11.7014 25.4397C12.7614 25.0797 13.8014 25.3597 14.0214 26.0397Z" fill="#FFC49C"/>
<path opacity="0.35" d="M3.68123 25.4397C4.72124 25.7997 5.38124 26.6397 5.14124 27.3397C4.90124 28.0397 3.86123 28.2997 2.82123 27.9397C1.78123 27.5797 1.12123 26.7397 1.36123 26.0397C1.60123 25.3597 2.64123 25.0797 3.68123 25.4397Z" fill="#FF5F6B"/>
<path opacity="0.35" d="M14.0214 26.0397C14.2614 26.7397 13.6014 27.5797 12.5614 27.9397C11.5214 28.2997 10.4814 28.0197 10.2414 27.3397C10.0014 26.6397 10.6614 25.7997 11.7014 25.4397C12.7614 25.0797 13.8014 25.3597 14.0214 26.0397Z" fill="#FF5F6B"/>
<path opacity="0.2" d="M3.68123 25.4397C4.72124 25.7997 5.38124 26.6397 5.14124 27.3397C4.90124 28.0397 3.86123 28.2997 2.82123 27.9397C1.78123 27.5797 1.12123 26.7397 1.36123 26.0397C1.60123 25.3597 2.64123 25.0797 3.68123 25.4397Z" fill="black"/>
<path opacity="0.2" d="M14.0214 26.0397C14.2614 26.7397 13.6014 27.5797 12.5614 27.9397C11.5214 28.2997 10.4814 28.0197 10.2414 27.3397C10.0014 26.6397 10.6614 25.7997 11.7014 25.4397C12.7614 25.0797 13.8014 25.3597 14.0214 26.0397Z" fill="black"/>
<path d="M14.0613 22.6997C13.6013 21.9997 13.0213 21.3797 12.6213 20.6397C11.9813 19.4397 11.8413 18.0597 11.6013 16.7197C11.4013 15.3797 11.0413 13.9997 10.1013 13.0197C9.46134 12.3397 8.44133 11.6797 7.68133 11.6797C6.92133 11.6797 5.90133 12.3597 5.26133 13.0197C4.32133 13.9997 3.98133 15.3797 3.74133 16.7197C3.52133 18.0597 3.36132 19.4397 2.72132 20.6397C2.32132 21.3797 1.76132 21.9997 1.28132 22.6997C0.84132 23.3997 -0.0386814 24.7197 0.00131867 25.5597C0.0813188 26.8397 0.80132 27.8797 1.44132 27.8797C2.00132 27.8797 1.76132 26.4197 2.92132 26.4197C3.42132 26.4197 4.02133 26.6197 4.26133 28.0997C4.44133 29.2797 6.24133 29.9997 7.68133 29.9997C9.12134 29.9997 10.9213 29.2797 11.1013 28.0997C11.3413 26.6197 11.9413 26.4197 12.4413 26.4197C13.6013 26.4197 13.3613 27.8797 13.9213 27.8797C14.5813 27.8797 15.2813 26.8397 15.3613 25.5597C15.4213 24.7197 14.5413 23.3997 14.0613 22.6997Z" fill="#FFC49C"/>
<path opacity="0.1" d="M1.84137 26.4198C1.06137 26.4198 0.921368 27.0598 0.741367 27.4798C0.961368 27.7198 1.22137 27.8598 1.46137 27.8598C1.92137 27.8598 1.84137 26.8998 2.42137 26.5398C2.22137 26.4398 2.02137 26.4198 1.84137 26.4198Z" fill="black"/>
<path opacity="0.1" d="M14.0613 22.6997C13.6013 21.9997 13.0213 21.3797 12.6213 20.6397C11.9813 19.4397 11.8413 18.0597 11.6013 16.7197C11.4013 15.3797 11.0413 13.9997 10.1013 13.0197C9.46129 12.3397 8.44129 11.6797 7.68129 11.6797C7.50129 11.6797 7.32129 11.7197 7.14129 11.7797C7.80129 11.9797 8.50129 12.4997 9.00129 13.0397C9.94129 14.0197 10.2813 15.3997 10.5213 16.7397C10.7413 18.0797 10.9013 19.4597 11.5413 20.6597C11.9413 21.3997 12.5013 22.0197 12.9813 22.7197C13.4413 23.4197 14.3413 24.7397 14.2813 25.5797C14.2413 26.3797 13.9413 27.0997 13.5613 27.4997C13.6613 27.7197 13.7413 27.8797 13.9413 27.8797C14.6013 27.8797 15.3013 26.8397 15.3813 25.5597C15.4213 24.7197 14.5413 23.3997 14.0613 22.6997Z" fill="black"/>
<path opacity="0.1" d="M10.3814 28.1598C9.80143 29.4998 8.50143 29.8798 7.24142 29.9798C7.38142 29.9998 7.54143 29.9998 7.68143 29.9998C9.12143 29.9998 10.9214 29.2798 11.1014 28.0998C11.3214 26.7598 11.8414 26.4598 12.3014 26.4198C11.8214 26.4198 10.9814 26.7998 10.3814 28.1598Z" fill="black"/>
<path d="M17.4614 16.5199C17.4614 16.8999 17.5214 17.2599 17.6014 17.6199C17.7814 18.2799 18.1214 18.9199 18.0614 19.6399C17.9214 21.3999 17.5814 22.5999 16.8414 24.2599C16.1014 25.9199 15.9614 28.4399 19.0614 29.6599C22.1414 30.8799 24.3014 27.6599 24.5414 26.2199C24.7814 24.7799 24.8014 24.4999 28.3614 21.0199C31.9214 17.5399 28.9414 11.8999 25.5214 11.2199C23.3214 10.7799 20.6414 10.8799 18.9614 12.5999C18.1014 13.4799 17.5814 14.6799 17.4614 15.8999C17.4814 16.1199 17.4614 16.3199 17.4614 16.5199Z" fill="#FFC49C"/>
<path opacity="0.1" d="M28.3812 18.0198C27.1812 21.2198 25.6012 21.4398 24.1212 23.3198C22.6212 25.2198 23.5612 26.6199 21.3012 28.3199C19.8212 29.4399 17.2412 28.8399 16.5412 27.2399C16.7412 28.1399 17.6412 29.1199 19.0612 29.6799C22.1612 30.8799 24.3012 27.6799 24.5412 26.2399C24.7812 24.7998 24.8012 24.5198 28.3612 21.0398C30.9412 18.5398 30.1012 14.8998 28.1612 12.8198C28.6412 13.9398 29.1812 15.9398 28.3812 18.0198Z" fill="black"/>
<path opacity="0.35" d="M27.4213 16.8599C27.4213 16.8599 27.1013 13.3398 24.1213 13.3398C21.1413 13.3398 20.0413 15.1998 20.0413 17.1199C20.0413 18.5399 20.2613 19.0399 20.2613 19.0399C20.2613 19.0399 21.7013 19.0399 21.7413 19.7799C21.8013 20.5199 21.0613 20.8599 20.4613 21.0399C20.4613 21.0399 18.6013 25.2199 20.4613 25.5799C22.3213 25.9399 21.9613 23.4999 22.3813 23.0399C22.8013 22.5799 25.2613 21.5599 25.5613 19.4599C25.8613 17.3599 24.5213 16.4199 22.7013 16.4599C20.8813 16.4999 21.4613 16.0598 21.7413 15.7398C22.0013 15.4598 24.5813 13.4598 27.4213 16.8599Z" fill="#FF5F6B"/>
<path opacity="0.1" d="M22.7014 16.5C22.1214 16.52 21.8014 16.48 21.6214 16.42C20.8613 16.72 20.5413 17.22 20.5213 16.72C20.4813 16.08 21.0413 14.9 21.4414 14.12C20.4613 14.84 20.0613 15.98 20.0613 17.14C20.0613 18.56 20.2813 19.06 20.2813 19.06C20.2813 19.06 21.7214 19.06 21.7614 19.8C21.8014 20.54 21.0814 20.88 20.4813 21.06C20.4813 21.06 20.3413 21.4 20.1613 21.88C20.9214 21.94 22.2814 21.86 22.4014 20.44C22.5614 18.48 20.9614 18.84 20.9614 18.4C20.9614 17.38 23.8414 15.8 24.6014 18.4C25.0414 19.92 24.3214 21.32 23.6614 22.2C24.4814 21.6 25.4214 20.74 25.6014 19.5C25.8614 17.38 24.5214 16.44 22.7014 16.5Z" fill="black"/>
<path d="M9.78132 11.76C10.4613 12.18 11.1613 12.86 11.6613 13.9H17.2413C17.4813 13.26 17.8413 12.62 18.3813 12.06C19.1413 11.26 20.1413 10.82 21.1413 10.56C21.1813 10.38 21.2413 10.18 21.2613 10C21.6013 8.08 21.3613 5.67999 20.6213 4.29999C20.5813 4.29999 19.0013 1.43999 18.9613 1.43999L10.6413 1.35999C10.6013 1.35999 9.86132 4.29999 9.82132 4.29999C9.10132 5.65999 8.84132 8.08 9.20132 10C9.30132 10.62 9.50132 11.2 9.78132 11.76Z" fill="#022F8E"/>
<path opacity="0.3" d="M11.6413 13.9H17.2213C17.4613 13.26 17.8213 12.62 18.3613 12.06C19.1213 11.26 20.1213 10.82 21.1213 10.56C21.1613 10.38 21.2213 10.18 21.2413 10C21.5813 8.08 21.3413 5.67999 20.6013 4.29999C20.5613 4.29999 18.9813 1.43999 18.9413 1.43999L10.6413 1.35999C10.6013 1.35999 9.86132 4.29999 9.82132 4.29999C9.10132 5.65999 8.84132 8.08 9.20132 10C9.30132 10.62 9.50132 11.22 9.78132 11.78C10.4413 12.2 11.1413 12.86 11.6413 13.9Z" fill="black"/>
<path d="M18.9014 10.5799C18.6214 10.3199 18.2814 10.1199 17.9214 9.99988C16.1814 9.41988 15.2814 10.5199 15.2214 10.5999C15.1614 10.5199 14.2614 9.41988 12.5214 9.99988C12.1614 10.1199 11.8214 10.3199 11.5414 10.5799C11.3614 9.47988 11.7214 8.35988 12.5214 7.57988C14.0214 6.05988 15.2214 7.27988 14.6214 7.87988C14.0214 8.47988 14.3214 9.39988 15.2214 9.39988C16.1214 9.39988 16.4214 8.49988 15.8214 7.87988C15.2214 7.27988 16.4214 6.05988 17.9214 7.57988C18.7214 8.33988 19.0814 9.45988 18.9014 10.5799Z" fill="#404A4C"/>
<path d="M19.0013 3.35987C18.9013 3.45987 18.8413 3.59987 18.8413 3.75987V3.87987C18.7813 3.65987 18.5613 3.39987 18.0413 3.39987C17.7813 3.39987 17.5413 3.45987 17.3213 3.61987C17.1413 3.73987 17.0413 3.91987 17.0213 4.13987V3.99987C17.0213 3.73987 16.8213 3.33987 16.2213 3.33987C15.9613 3.33987 15.7213 3.41987 15.5213 3.57987C15.3412 3.71987 15.2412 3.91987 15.2212 4.15987C15.2212 3.93987 15.1012 3.71987 14.9212 3.57987C14.7212 3.41987 14.4612 3.33987 14.2212 3.33987C13.6212 3.33987 13.4212 3.71987 13.4212 3.99987V4.13987C13.4212 3.93987 13.3012 3.73987 13.1212 3.61987C12.9012 3.47987 12.6612 3.39987 12.4012 3.39987C11.8812 3.39987 11.6612 3.65987 11.6012 3.87987V3.59987C11.6012 3.49987 11.5612 3.39987 11.5012 3.29987L11.5412 3.27987C11.8212 3.07987 12.1012 2.89987 12.4012 2.75987C14.1812 1.89987 16.2413 1.89987 18.0213 2.75987C18.3213 2.89987 18.6213 3.07987 18.8813 3.27987C18.9213 3.29987 18.9613 3.33987 19.0013 3.35987Z" fill="#FFC49C"/>
<path d="M19.0013 3.35987C18.9013 3.45987 18.8413 3.59987 18.8413 3.75987V3.87987C18.7813 3.65987 18.5613 3.39987 18.0413 3.39987C17.7813 3.39987 17.5413 3.45987 17.3213 3.61987C17.1413 3.73987 17.0413 3.91987 17.0213 4.13987V3.99987C17.0213 3.73987 16.8213 3.33987 16.2213 3.33987C15.9613 3.33987 15.7213 3.41987 15.5213 3.57987C15.3412 3.71987 15.2412 3.91987 15.2212 4.15987C15.2212 3.93987 15.1012 3.71987 14.9212 3.57987C14.7212 3.41987 14.4612 3.33987 14.2212 3.33987C13.6212 3.33987 13.4212 3.71987 13.4212 3.99987V4.13987C13.4212 3.93987 13.3012 3.73987 13.1212 3.61987C12.9012 3.47987 12.6612 3.39987 12.4012 3.39987C11.8812 3.39987 11.6612 3.65987 11.6012 3.87987V3.59987C11.6012 3.49987 11.5612 3.39987 11.5012 3.29987L11.5412 3.27987C11.8212 3.07987 12.1012 2.89987 12.4012 2.75987C14.1812 1.89987 16.2413 1.89987 18.0213 2.75987C18.3213 2.89987 18.6213 3.07987 18.8813 3.27987C18.9213 3.29987 18.9613 3.33987 19.0013 3.35987Z" fill="#FFC49C"/>
<path d="M11.8211 14.3401C12.8412 15.5401 14.0612 16.5201 15.2012 16.5401L16.7412 16.2601C16.7612 15.8401 16.8012 15.3801 16.9012 14.8801L15.2212 10.6001C15.1612 10.5201 14.2612 9.42008 12.5211 10.0001C12.1611 10.1201 11.8211 10.3201 11.5411 10.5801C11.0411 11.0401 10.6611 11.6001 10.4011 12.2401C10.9411 12.7001 11.4611 13.3801 11.8211 14.3401Z" fill="#022F8E"/>
<path opacity="0.35" d="M19.0013 3.35987C18.9013 3.45987 18.8413 3.59987 18.8413 3.75987V3.87987C18.7813 3.65987 18.5613 3.39987 18.0413 3.39987C17.7813 3.39987 17.5413 3.45987 17.3213 3.61987C17.1413 3.73987 17.0413 3.91987 17.0213 4.13987V3.99987C17.0213 3.73987 16.8213 3.33987 16.2213 3.33987C15.9613 3.33987 15.7213 3.41987 15.5213 3.57987C15.3412 3.71987 15.2412 3.91987 15.2212 4.15987C15.2212 3.93987 15.1012 3.71987 14.9212 3.57987C14.7212 3.41987 14.4612 3.33987 14.2212 3.33987C13.6212 3.33987 13.4212 3.71987 13.4212 3.99987V4.13987C13.4212 3.93987 13.3012 3.73987 13.1212 3.61987C12.9012 3.47987 12.6612 3.39987 12.4012 3.39987C11.8812 3.39987 11.6612 3.65987 11.6012 3.87987V3.59987C11.6012 3.49987 11.5612 3.39987 11.5012 3.29987L11.5412 3.27987C11.8212 3.07987 12.1012 2.89987 12.4012 2.75987C14.1812 1.89987 16.2413 1.89987 18.0213 2.75987C18.3213 2.89987 18.6213 3.07987 18.8813 3.27987C18.9213 3.29987 18.9613 3.33987 19.0013 3.35987Z" fill="#FF5F6B"/>
<path opacity="0.1" d="M15.2214 3.8399V4.8199C15.2014 5.0199 15.0214 5.1599 14.8214 5.1399H13.8214C13.6214 5.1599 13.4414 5.0199 13.4214 4.8199V3.6799C13.4214 3.4199 13.6214 3.0199 14.2214 3.0199C14.4814 3.0199 14.7214 3.0999 14.9214 3.2599C15.1014 3.3999 15.2014 3.6199 15.2214 3.8399Z" fill="black"/>
<path opacity="0.1" d="M13.4014 3.81998V4.65998C13.4014 4.83998 13.2014 4.97998 12.9414 4.97998H12.0414C11.7814 4.97998 11.5814 4.83998 11.5814 4.65998V4.35998C11.5814 4.33998 11.6014 4.31998 11.6014 4.27998V3.57998C11.6614 3.35998 11.8814 3.09998 12.4014 3.09998C12.6614 3.09998 12.9014 3.15998 13.1214 3.31998C13.2814 3.41998 13.4014 3.61998 13.4014 3.81998Z" fill="black"/>
<path opacity="0.1" d="M17.0215 3.6799V4.8199C17.0015 5.0199 16.8215 5.1599 16.6215 5.1399H15.6215C15.4215 5.1599 15.2415 5.0199 15.2215 4.8199V3.8399C15.2215 3.6199 15.3415 3.3999 15.5215 3.2599C15.7215 3.0999 15.9815 3.0199 16.2215 3.0199C16.8215 3.0199 17.0215 3.3999 17.0215 3.6799Z" fill="black"/>
<path opacity="0.1" d="M18.8413 4.35984V4.65984C18.8413 4.83984 18.6413 4.97984 18.3813 4.97984H17.4813C17.2213 4.97984 17.0213 4.83984 17.0213 4.65984V3.81984C17.0213 3.61984 17.1413 3.41983 17.3213 3.29983C17.5413 3.15983 17.7813 3.07983 18.0413 3.07983C18.5613 3.07983 18.7813 3.33983 18.8413 3.55983V4.25984C18.8213 4.29984 18.8413 4.33984 18.8413 4.35984Z" fill="black"/>
<path d="M9.5035 10.001C9.1635 8.08105 9.4035 6.28104 10.1435 4.90104C10.3635 4.48104 10.6435 4.08104 10.9835 3.74104L11.0035 3.72104C11.1635 3.58104 11.3435 3.44104 11.5235 3.30104L11.5635 3.28104C11.8435 3.08104 12.1235 2.90104 12.4235 2.76104C14.2035 1.90103 16.2635 1.90103 18.0435 2.76104C18.3435 2.90104 18.6435 3.08104 18.9035 3.28104C18.9435 3.30104 18.9635 3.32104 19.0035 3.34104C19.1635 3.46104 19.3235 3.58104 19.4635 3.72104L19.4835 3.74104C19.8035 4.08104 20.0835 4.48104 20.3235 4.90104C21.0435 6.26104 21.3035 8.08105 20.9635 10.001C20.9235 10.2211 20.8835 10.4411 20.8035 10.6611C21.3235 10.5011 21.8235 10.4211 22.3035 10.3611C22.7835 6.96104 22.1035 3.36104 19.9435 1.20103C17.7435 -0.998971 15.2235 0.581032 15.2235 0.581032C15.2235 0.581032 12.7035 -1.01897 10.5035 1.18103C8.1835 3.50104 7.5635 7.50104 8.2635 11.1211C8.7635 11.2411 9.5435 11.5211 10.2635 12.1211C9.9035 11.4611 9.6235 10.7411 9.5035 10.001Z" fill="#022F8E"/>
<path d="M16.9412 14.8201C16.4012 15.0001 15.8212 15.1201 15.2212 15.1401C13.8612 15.1001 12.5612 14.5801 11.5612 13.7201C11.9812 14.5201 12.2812 15.5601 12.3212 16.9201C13.8412 17.5801 15.2212 17.5801 15.2212 17.5801C15.2212 17.5801 15.8812 17.5801 16.8012 17.3601C16.7412 16.8201 16.7012 15.8801 16.9412 14.8201Z" fill="#022F8E"/>
<path opacity="0.1" d="M9.5035 10.001C9.1635 8.08105 9.4035 6.28104 10.1435 4.90104C10.3635 4.48104 10.6435 4.08104 10.9835 3.74104L11.0035 3.72104C11.1635 3.58104 11.3435 3.44104 11.5235 3.30104L11.5635 3.28104C11.8435 3.08104 12.1235 2.90104 12.4235 2.76104C14.2035 1.90103 16.2635 1.90103 18.0435 2.76104C18.3435 2.90104 18.6435 3.08104 18.9035 3.28104C18.9435 3.30104 18.9635 3.32104 19.0035 3.34104C19.1635 3.46104 19.3235 3.58104 19.4635 3.72104L19.4835 3.74104C19.8035 4.08104 20.0835 4.48104 20.3235 4.90104C21.0435 6.26104 21.3035 8.08105 20.9635 10.001C20.9235 10.2211 20.8835 10.4411 20.8035 10.6611C21.3235 10.5011 21.8235 10.4211 22.3035 10.3611C22.7835 6.96104 22.1035 3.36104 19.9435 1.20103C17.7435 -0.998971 15.2235 0.581032 15.2235 0.581032C15.2235 0.581032 12.7035 -1.01897 10.5035 1.18103C8.1835 3.50104 7.5635 7.50104 8.2635 11.1211C8.7635 11.2411 9.5435 11.5211 10.2635 12.1211C9.9035 11.4611 9.6235 10.7411 9.5035 10.001Z" fill="black"/>
<path opacity="0.1" d="M16.9412 14.8201C16.4012 15.0001 15.8212 15.1201 15.2212 15.1401C13.8612 15.1001 12.5612 14.5801 11.5612 13.7201C11.9812 14.5201 12.2812 15.5601 12.3212 16.9201C13.8412 17.5801 15.2212 17.5801 15.2212 17.5801C15.2212 17.5801 15.8812 17.5801 16.8012 17.3601C16.7412 16.8201 16.7012 15.8801 16.9412 14.8201Z" fill="black"/>
<path d="M15.2214 4.14007V5.12007C15.2014 5.32007 15.0214 5.46007 14.8214 5.44007H13.8214C13.6214 5.46007 13.4414 5.32007 13.4214 5.12007V3.98007C13.4214 3.72007 13.6214 3.32007 14.2214 3.32007C14.4814 3.32007 14.7214 3.40007 14.9214 3.56007C15.1014 3.70007 15.2014 3.92007 15.2214 4.14007Z" fill="white"/>
<path d="M13.4014 4.11978V4.95978C13.4014 5.13978 13.2014 5.27978 12.9414 5.27978H12.0414C11.7814 5.27978 11.5814 5.13978 11.5814 4.95978V4.65978C11.5814 4.63978 11.6014 4.61978 11.6014 4.57978V3.87978C11.6614 3.65978 11.8814 3.39978 12.4014 3.39978C12.6614 3.39978 12.9014 3.45978 13.1214 3.61978C13.2814 3.71978 13.4014 3.91978 13.4014 4.11978Z" fill="white"/>
<path d="M17.0215 3.98007V5.12007C17.0015 5.32007 16.8215 5.46007 16.6215 5.44007H15.6215C15.4215 5.46007 15.2415 5.32007 15.2215 5.12007V4.14007C15.2215 3.92007 15.3415 3.70007 15.5215 3.56007C15.7215 3.40007 15.9815 3.32007 16.2215 3.32007C16.8215 3.34007 17.0215 3.72007 17.0215 3.98007Z" fill="white"/>
<path d="M18.8413 4.65989V4.95989C18.8413 5.13989 18.6413 5.27989 18.3813 5.27989H17.4813C17.2213 5.27989 17.0213 5.13989 17.0213 4.95989V4.11988C17.0213 3.91988 17.1413 3.71988 17.3213 3.59988C17.5413 3.45988 17.7813 3.37988 18.0413 3.37988C18.5613 3.37988 18.7813 3.63988 18.8413 3.85988V4.55988C18.8213 4.61989 18.8413 4.63989 18.8413 4.65989Z" fill="white"/>
<path d="M20.3014 4.90009C20.2614 4.90009 20.2214 4.90009 20.1814 4.90009H19.2814C19.1014 4.92009 18.9214 4.82009 18.8414 4.64009V3.96009C18.8414 3.92009 18.8414 3.90009 18.8214 3.86009V3.74009C18.8214 3.60009 18.8814 3.44009 18.9814 3.34009C19.1414 3.46009 19.3014 3.58009 19.4414 3.72009L19.4614 3.74009C19.8014 4.10009 20.0814 4.48009 20.3014 4.90009Z" fill="white"/>
<path d="M11.6013 3.60007V3.88007C11.6013 3.92007 11.5813 3.94007 11.5813 3.98007V4.66007C11.5013 4.82007 11.3213 4.92007 11.1413 4.92007H10.2413C10.2013 4.92007 10.1613 4.92007 10.1213 4.92007C10.3413 4.50007 10.6213 4.10007 10.9613 3.76007L10.9813 3.74007C11.1413 3.60007 11.3213 3.46007 11.5013 3.32007C11.5613 3.40007 11.6013 3.50007 11.6013 3.60007Z" fill="white"/>
<path d="M16.9415 14.8199C17.1415 13.8999 17.5615 12.8999 18.3615 12.0399C18.6815 11.6999 19.0615 11.4199 19.4615 11.1799C19.3015 10.9599 19.1215 10.7399 18.9015 10.5399C18.6215 10.2799 18.2815 10.0799 17.9215 9.95992C16.1815 9.37992 15.2815 10.4799 15.2215 10.5599V15.0999C15.8215 15.1199 16.4015 15.0199 16.9415 14.8199Z" fill="#022F8E"/>
</svg>
