<svg width="20" height="20" viewBox="0 0 20 20" fill="none" xmlns="http://www.w3.org/2000/svg">
<path opacity="0.4" d="M8.95834 2.04172C9.54167 1.55006 10.4833 1.55006 11.05 2.04172L12.3667 3.16672C12.6167 3.37506 13.0917 3.55006 13.425 3.55006H14.8417C15.725 3.55006 16.45 4.27506 16.45 5.15839V6.57506C16.45 6.90839 16.625 7.37506 16.8333 7.62506L17.9583 8.94172C18.45 9.52506 18.45 10.4667 17.9583 11.0334L16.8333 12.3501C16.625 12.6001 16.45 13.0667 16.45 13.4001V14.8167C16.45 15.7001 15.725 16.4251 14.8417 16.4251H13.425C13.0917 16.4251 12.625 16.6001 12.375 16.8084L11.0583 17.9334C10.475 18.4251 9.53334 18.4251 8.96667 17.9334L7.65 16.8084C7.4 16.6001 6.925 16.4251 6.6 16.4251H5.14167C4.25834 16.4251 3.53334 15.7001 3.53334 14.8167V13.3917C3.53334 13.0667 3.36667 12.5917 3.15834 12.3501L2.03334 11.0251C1.55 10.4501 1.55 9.51672 2.03334 8.94172L3.15834 7.61672C3.36667 7.36672 3.53334 6.90006 3.53334 6.57506V5.16672C3.53334 4.28339 4.25834 3.55839 5.14167 3.55839H6.58334C6.91667 3.55839 7.38334 3.38339 7.63334 3.17506L8.95834 2.04172Z" fill="#00003F"/>
<path d="M10 14.0584C9.54169 14.0584 9.16669 13.6834 9.16669 13.2251C9.16669 12.7667 9.53335 12.3917 10 12.3917C10.4584 12.3917 10.8334 12.7667 10.8334 13.2251C10.8334 13.6834 10.4667 14.0584 10 14.0584Z" fill="#00003F"/>
<path d="M10 11.4334C9.65833 11.4334 9.375 11.15 9.375 10.8084V6.77502C9.375 6.43336 9.65833 6.15002 10 6.15002C10.3417 6.15002 10.625 6.43336 10.625 6.77502V10.8C10.625 11.15 10.35 11.4334 10 11.4334Z" fill="#00003F"/>
</svg>
