<svg width="20" height="20" viewBox="0 0 20 20" fill="none" xmlns="http://www.w3.org/2000/svg">
<path d="M10 1.66663C11.3807 1.66663 12.5 2.78591 12.5 4.16663V15.8333C12.5 17.214 11.3807 18.3333 10 18.3333H5C3.61929 18.3333 2.5 17.214 2.5 15.8333V4.16663C2.5 2.78591 3.61929 1.66663 5 1.66663H10Z" fill="#FF3929" fill-opacity="0.2"/>
<path d="M14.7559 6.49408C14.4304 6.16864 13.9028 6.16864 13.5774 6.49408C13.2519 6.81951 13.2519 7.34715 13.5774 7.67259L15.0714 9.16667H7.49996C7.03972 9.16667 6.66663 9.53976 6.66663 10C6.66663 10.4602 7.03972 10.8333 7.49996 10.8333H15.0714L13.5774 12.3274C13.2519 12.6528 13.2519 13.1805 13.5774 13.5059C13.9028 13.8314 14.4304 13.8314 14.7559 13.5059L17.0833 11.1785C17.7342 10.5276 17.7342 9.47236 17.0833 8.82149L14.7559 6.49408Z" fill="#FF3929"/>
</svg>
