<svg width="30" height="30" viewBox="0 0 30 30" fill="none" xmlns="http://www.w3.org/2000/svg">
<g clip-path="url(#clip0_1332_4466)">
<path d="M24.1002 3.42028L23.2602 3.22028C22.9002 3.00028 22.4202 2.78028 21.8602 2.60028C20.5002 2.16028 18.6802 1.90028 16.7602 1.88028C14.8402 1.86028 13.0202 2.08028 11.6402 2.48028C10.9402 2.68028 10.3802 2.94028 9.98016 3.22028L9.28016 3.36028V5.58028C9.26016 6.28028 10.0802 6.94028 11.5602 7.42028C12.9202 7.86028 14.7402 8.12028 16.6602 8.14028C16.7402 8.14028 16.8402 8.14028 16.9202 8.14028C18.7402 8.14028 20.4602 7.92028 21.8002 7.54028C23.3002 7.10028 24.1202 6.48028 24.1402 5.78028C24.1002 5.66028 24.1002 3.42028 24.1002 3.42028Z" fill="#94C6E7"/>
<path opacity="0.15" d="M24.1002 3.42028L23.2602 3.22028C22.9002 3.00028 22.4202 2.78028 21.8602 2.60028C20.5002 2.16028 18.6802 1.90028 16.7602 1.88028C14.8402 1.86028 13.0202 2.08028 11.6402 2.48028C10.9402 2.68028 10.3802 2.94028 9.98016 3.22028L9.28016 3.36028V5.58028C9.26016 6.28028 10.0802 6.94028 11.5602 7.42028C12.9202 7.86028 14.7402 8.12028 16.6602 8.14028C16.7402 8.14028 16.8402 8.14028 16.9202 8.14028C18.7402 8.14028 20.4602 7.92028 21.8002 7.54028C23.3002 7.10028 24.1202 6.48028 24.1402 5.78028C24.1002 5.66028 24.1002 3.42028 24.1002 3.42028Z" fill="black"/>
<path d="M10.74 8.4998C8.29995 6.0598 4.29995 6.0598 1.85995 8.4998C0.679951 9.6798 0.0199509 11.2598 0.0199509 12.9398C0.0199509 14.6198 0.679951 16.1998 1.85995 17.3798C3.07995 18.5998 4.69995 19.2198 6.29995 19.2198C7.89995 19.2198 9.51995 18.5998 10.74 17.3798C13.2 14.9398 13.2 10.9598 10.74 8.4998Z" fill="#022F8E"/>
<path d="M21.8198 1.63983C20.4598 1.19983 18.6598 0.939833 16.7398 0.919833C14.8198 0.899833 12.9998 1.11983 11.6198 1.51983C10.1198 1.95983 9.27983 2.59983 9.25983 3.29983C9.23983 3.99983 10.0398 4.65983 11.5198 5.11983C12.8798 5.55983 14.6798 5.79983 16.5998 5.83983C16.6798 5.83983 16.7798 5.83983 16.8598 5.83983C18.6798 5.83983 20.3998 5.61983 21.7198 5.23983C23.2198 4.79983 24.0598 4.15983 24.0798 3.45983C24.1198 2.75983 23.2998 2.09983 21.8198 1.63983Z" fill="#94C6E7"/>
<path d="M22.7603 22.7394L28.3403 17.1594C29.4003 16.1194 29.9603 14.7194 29.9603 13.2394C29.9603 11.7594 29.3803 10.3594 28.3403 9.29942C27.3003 8.23942 25.9003 7.67942 24.4203 7.65942C22.9403 7.65942 21.5403 8.23942 20.5003 9.27942L14.9203 14.8794L22.7603 22.7394Z" fill="#94C6E7"/>
<path d="M14.8998 14.8794C14.8998 14.8794 14.9198 14.8794 14.8998 14.8794L9.31981 20.4394C8.25981 21.4794 7.69981 22.8794 7.69981 24.3594C7.69981 25.8394 8.27981 27.2394 9.31981 28.2994C10.3598 29.3594 11.7598 29.9194 13.2398 29.9394C14.7198 29.9394 16.1198 29.3594 17.1598 28.3194L22.7398 22.7394L14.8998 14.8794Z" fill="#EADCB9"/>
<path opacity="0.1" d="M29.9798 13.2397C29.9798 11.7597 29.3998 10.3597 28.3598 9.29967C28.1198 9.05967 27.8598 8.83967 27.5998 8.65967C28.2398 9.57967 28.5998 10.6797 28.5998 11.8397C28.5998 13.3197 28.0198 14.7197 26.9598 15.7597L21.3798 21.3397L22.7798 22.7397L28.3598 17.1597C29.3998 16.1197 29.9798 14.7197 29.9798 13.2397Z" fill="black"/>
<path opacity="0.1" d="M22.7599 22.7403L21.3599 21.3403L15.7999 26.9203C14.7599 27.9603 13.3599 28.5403 11.8799 28.5403C10.7399 28.5403 9.63991 28.2003 8.71991 27.5403C8.89991 27.8003 9.11991 28.0603 9.35991 28.3003C10.3999 29.3603 11.7999 29.9203 13.2799 29.9403C14.7599 29.9403 16.1599 29.3603 17.1999 28.3203L22.7599 22.7403Z" fill="black"/>
<path opacity="0.15" d="M12.4799 11.8397C12.2599 13.0597 11.6799 14.2197 10.7399 15.1597C9.51989 16.3797 7.91988 16.9997 6.29988 16.9997C5.35988 16.9997 4.41988 16.7797 3.55988 16.3797L11.0599 8.87971C10.9599 8.75971 10.8599 8.63971 10.7399 8.51971C10.6199 8.39971 10.4999 8.29971 10.3799 8.19971L2.71988 15.8597C2.41988 15.6597 2.13988 15.4197 1.87988 15.1597C0.959885 14.2397 0.359885 13.0797 0.139885 11.8397C0.0798846 12.1997 0.0398846 12.5797 0.0398846 12.9597C0.0398846 14.4797 0.579885 15.9197 1.55988 17.0397C1.57988 17.0597 1.57988 17.0597 1.59988 17.0797C1.69988 17.1797 1.77988 17.2997 1.87988 17.3997C3.09988 18.6197 4.71988 19.2397 6.31988 19.2397C7.91988 19.2397 9.53988 18.6197 10.7599 17.3997C12.2599 15.8797 12.8399 13.7797 12.4799 11.8397Z" fill="black"/>
<path opacity="0.15" d="M15.7399 1.17993L15.6799 5.73993C15.8199 5.73993 15.9599 5.73993 16.0799 5.73993C16.1599 5.73993 16.2399 5.73993 16.3199 5.73993C16.3999 5.73993 16.4799 5.73993 16.5599 5.73993L16.6199 1.17993C16.4799 1.17993 16.3399 1.17993 16.1999 1.17993C16.0399 1.17993 15.8999 1.17993 15.7399 1.17993Z" fill="black"/>
</g>
<defs>
<clipPath id="clip0_1332_4466">
<rect width="30" height="30" fill="white"/>
</clipPath>
</defs>
</svg>
