<svg width="44" height="42" viewBox="0 0 44 42" fill="none" xmlns="http://www.w3.org/2000/svg">
<path d="M27.6187 2.46827C30.9086 -0.821618 36.2425 -0.821618 39.5324 2.46827C42.8223 5.75816 42.8223 11.0921 39.5324 14.382L14.3812 39.5333C11.0913 42.8232 5.75731 42.8232 2.46742 39.5333C-0.822473 36.2434 -0.822473 30.9094 2.46742 27.6195L27.6187 2.46827Z" fill="url(#paint0_linear_1332_4612)"/>
<g filter="url(#filter0_b_1332_4612)">
<path d="M40.8561 27.6187C44.146 30.9086 44.146 36.2425 40.8561 39.5324C37.5662 42.8223 32.2322 42.8223 28.9423 39.5324L3.79109 14.3812C0.501196 11.0913 0.501197 5.75731 3.79109 2.46742C7.08098 -0.822473 12.4149 -0.822473 15.7048 2.46742L40.8561 27.6187Z" fill="white" fill-opacity="0.2"/>
</g>
<circle cx="21.6619" cy="16.6979" r="2.10607" transform="rotate(45 21.6619 16.6979)" fill="white"/>
<circle cx="16.6977" cy="21.6612" r="2.10607" transform="rotate(45 16.6977 21.6612)" fill="white"/>
<circle cx="26.626" cy="21.6612" r="2.10607" transform="rotate(45 26.626 21.6612)" fill="white"/>
<circle cx="21.6619" cy="26.6253" r="2.10607" transform="rotate(45 21.6619 26.6253)" fill="white"/>
<defs>
<filter id="filter0_b_1332_4612" x="-23.6763" y="-25" width="91.9998" height="91.9999" filterUnits="userSpaceOnUse" color-interpolation-filters="sRGB">
<feFlood flood-opacity="0" result="BackgroundImageFix"/>
<feGaussianBlur in="BackgroundImageFix" stdDeviation="12.5"/>
<feComposite in2="SourceAlpha" operator="in" result="effect1_backgroundBlur_1332_4612"/>
<feBlend mode="normal" in="SourceGraphic" in2="effect1_backgroundBlur_1332_4612" result="shape"/>
</filter>
<linearGradient id="paint0_linear_1332_4612" x1="-2.25175e-07" y1="19.6008" x2="40.9932" y2="19.7837" gradientUnits="userSpaceOnUse">
<stop stop-color="#FF7070"/>
<stop offset="1" stop-color="#FF7070" stop-opacity="0.65"/>
</linearGradient>
</defs>
</svg>
