<svg width="31" height="30" viewBox="0 0 31 30" fill="none" xmlns="http://www.w3.org/2000/svg">
<g clip-path="url(#clip0_1332_4589)">
<path d="M6.23848 10.7202C6.23848 10.7202 7.57848 12.9402 9.11848 12.9202C10.6585 12.9002 12.3385 12.1002 11.6385 8.84017C10.8785 5.28017 3.77848 3.88017 1.59848 11.8402C-0.641519 19.9402 3.73848 25.1402 5.69848 25.1402C8.67848 25.1402 10.7185 22.9002 10.4585 19.8602C10.3585 18.7002 9.59848 16.8602 8.89848 16.9002C8.19848 16.9402 6.61848 17.8202 5.71848 19.6602C5.71848 19.6602 5.53848 19.6002 5.83848 18.8002C6.13848 17.9802 6.77848 17.5802 6.67848 17.3802C6.55848 17.1802 4.59848 17.8602 4.01848 17.4802C4.01848 17.4802 4.51848 17.1602 5.13848 17.1402C5.75848 17.1202 7.43848 17.0402 7.65848 16.9202C7.89848 16.7802 8.47848 16.6002 8.63848 15.6402C8.79848 14.7002 8.77848 13.3602 8.77848 13.3602C8.77848 13.3602 7.67848 13.1002 7.19848 12.5002C7.19848 12.5002 7.03848 12.2602 6.29848 12.1402C5.55848 12.0002 4.99848 11.9202 4.63848 11.5802C4.63848 11.5802 5.03848 11.6002 5.49848 11.7402C5.93848 11.8602 6.55848 11.9002 6.55848 11.9002C6.55848 11.9002 5.97848 10.9202 6.23848 10.7202Z" fill="#022F8E"/>
<path d="M25.7185 10.7198C25.7185 10.7198 24.3785 12.9398 22.8385 12.9198C21.2985 12.8998 19.6185 12.0998 20.3185 8.83977C21.0785 5.29977 28.1785 3.89977 30.3585 11.8398C32.5985 19.9398 28.2185 25.1398 26.2585 25.1398C22.9585 25.1398 21.2385 22.8998 21.4985 19.8598C21.5985 18.6998 22.3585 16.8598 23.0585 16.8998C23.7585 16.9398 25.3385 17.8198 26.2385 19.6598C26.2385 19.6598 26.4185 19.5998 26.1185 18.7998C25.8185 17.9798 25.1785 17.5798 25.2785 17.3798C25.3985 17.1798 27.3585 17.8598 27.9385 17.4798C27.9385 17.4798 27.4385 17.1598 26.8185 17.1398C26.1985 17.1198 24.5185 17.0398 24.2985 16.9198C24.0585 16.7798 23.4785 16.5998 23.3185 15.6398C23.1585 14.6998 23.1785 13.3598 23.1785 13.3598C23.1785 13.3598 24.2785 13.0998 24.7585 12.4998C24.7585 12.4998 24.9185 12.2598 25.6585 12.1398C26.3985 11.9998 26.9585 11.9198 27.3185 11.5798C27.3185 11.5798 26.9185 11.5998 26.4585 11.7398C26.0185 11.8598 25.3985 11.8998 25.3985 11.8998C25.3985 11.8998 25.9785 10.9198 25.7185 10.7198Z" fill="#022F8E"/>
<path d="M14.6186 13.2201V13.7801C14.6186 13.7801 13.4586 13.8201 13.1586 13.9001C12.8586 13.9801 12.2586 14.0001 12.2586 14.0001C12.2586 14.0001 11.9386 14.9201 11.5986 15.6401C11.2586 16.3601 10.9386 16.9201 10.6786 17.1801C10.4186 17.4401 10.3186 17.8801 10.3186 18.1601L10.1386 17.8801C10.1386 17.8801 10.2186 17.4001 10.3186 17.3001C10.3186 17.3001 10.0586 17.4601 9.81856 17.4401L9.69856 17.2001C9.69856 17.2001 10.4186 17.1201 10.6186 16.7801C10.8186 16.4401 11.3186 15.8601 11.4786 15.2801C11.6386 14.7201 11.9786 14.0201 11.9786 14.0201C11.9786 14.0201 11.6586 14.2601 11.0386 14.3401C10.4186 14.4201 10.6986 14.3201 10.4186 14.4201C10.1186 14.5201 9.29856 14.4601 9.05856 14.3401V14.1001C9.05856 14.1001 9.95856 14.1201 10.2786 13.9601C10.2786 13.9601 10.0186 13.6601 9.05856 13.7601V13.5201C9.05856 13.5201 10.2786 13.3201 10.5786 13.6601C10.5786 13.6601 11.0786 13.7201 11.1186 13.6401C11.1586 13.5601 10.8186 13.3401 10.8386 12.7201L11.0386 12.6001C11.0386 12.6001 11.2386 13.4601 11.4386 13.5001C11.4386 13.5001 11.6386 13.4801 11.9786 13.4201C12.3186 13.3601 12.3186 13.4601 13.2186 13.3601C14.0986 13.2801 14.6186 13.2201 14.6186 13.2201Z" fill="#93C6E7"/>
<path d="M9.01857 14.5203V14.9403C9.01857 14.9403 9.37857 15.1003 9.39857 15.2003H8.93857L8.85857 15.7203H9.11857L8.65857 16.4003H9.11857C9.11857 16.4003 10.2986 15.3203 11.2186 15.2603L11.4386 14.5403C11.4386 14.5403 10.3586 14.8203 9.81857 14.7803C9.29857 14.7403 9.01857 14.5203 9.01857 14.5203Z" fill="#022F8E"/>
<path d="M11.0386 15.7402C11.0386 15.7402 10.6586 16.3802 10.4386 16.6002C10.2186 16.8202 9.83859 17.0602 9.61859 17.0602L9.33859 16.6002C9.33859 16.6002 9.57859 16.3002 9.93859 16.0402C10.2986 15.7802 10.7986 15.5002 10.8786 15.5402C10.9586 15.5802 11.0386 15.7402 11.0386 15.7402Z" fill="#022F8E"/>
<path d="M10.6386 17.7602V19.1602C10.6386 19.1602 11.9786 19.4602 12.2186 20.3602C12.4586 21.2602 12.2386 23.6602 12.3986 25.4202C12.5586 27.2002 12.6786 29.9802 12.6786 29.9802H14.2386C14.2386 29.9802 14.0186 26.1002 14.0786 23.4002C14.1386 20.7002 14.3386 19.7402 13.9786 18.6802C13.6186 17.6202 12.5186 16.8402 11.6386 16.1602C11.6186 16.1802 11.5586 16.9202 10.6386 17.7602Z" fill="#022F8E"/>
<path d="M12.3986 14.34L12.1386 15.12C12.1386 15.12 14.0386 14.92 14.8586 15.56L15.1186 30H16.6786L16.3186 15.52C16.3186 15.36 16.3586 15.2 16.4386 15.08C16.5386 14.94 16.6786 14.82 16.9386 14.8C17.4986 14.76 18.6386 15.48 19.8386 15.56C21.0386 15.64 21.3786 15.5 21.7186 15.64C22.0786 15.78 22.9786 16.4 22.9786 16.4V16.06C22.9786 16.06 22.2586 15.58 22.1586 15.38C22.0586 15.18 22.7186 15.2 22.7186 15.2L22.6986 14.84L22.2986 14.82L22.4586 14.68L22.1186 14.52L21.8586 14.74C21.8586 14.74 20.5786 14.92 20.0186 14.88C19.4386 14.84 17.9386 14.18 17.2586 14.2C16.5986 14.22 16.3586 14.2 16.3586 14.2L16.0786 0H14.4186L14.9786 14.28L12.3986 14.34Z" fill="#022F8E"/>
<path d="M17.0586 29.9999H18.2986L18.1786 15.4799C18.1786 15.4799 17.8786 15.4399 17.5186 15.2399C17.1586 15.0599 16.8586 15.1799 16.8586 15.1799L17.0586 29.9999Z" fill="#93C6E7"/>
<path d="M18.1586 14.06C18.1586 14.06 17.4786 13.84 16.8586 13.92V13.76H16.5386V13.1H16.8186L16.5786 0H18.2586L18.1586 13.1C18.1586 13.1 19.7786 13.58 20.2986 13.84C20.8186 14.1 21.0386 14.22 21.2786 14.18C21.5186 14.14 21.4386 13.86 21.4786 13.58C21.5186 13.3 21.6986 13.06 21.6986 13.06L22.0386 13.24C22.0386 13.24 21.7986 13.58 21.8386 13.86C21.8586 14.02 22.3786 13.8 22.6186 13.74C22.8586 13.7 23.0386 13.72 23.0386 13.72C23.0386 13.72 22.9786 13.92 22.9986 14C22.9986 14 22.2986 14.02 22.2186 14.18C22.1386 14.32 22.8586 14.62 22.8586 14.62L22.8186 14.82C22.8186 14.82 22.1386 14.38 21.8986 14.42C21.6586 14.46 21.1586 14.7 20.5586 14.54C19.9586 14.38 18.1586 13.76 18.1586 13.76V14.06Z" fill="#93C6E7"/>
<path d="M22.4785 16.5203C22.4785 16.5203 21.8185 15.7003 20.3985 15.9203C20.3985 15.9203 19.5985 17.3803 19.5985 18.4203C19.5985 19.4603 19.5985 30.0003 19.5985 30.0003H20.9585L21.2985 21.8203C21.2985 21.8203 20.5185 20.6803 21.0385 18.6403C21.3985 17.2003 22.4785 16.5203 22.4785 16.5203Z" fill="#022F8E"/>
<path opacity="0.1" d="M11.0386 15.7402C11.0386 15.7402 10.6586 16.3802 10.4386 16.6002C10.2186 16.8202 9.83859 17.0602 9.61859 17.0602L9.33859 16.6002C9.33859 16.6002 9.57859 16.3002 9.93859 16.0402C10.2986 15.7802 10.7986 15.5002 10.8786 15.5402C10.9586 15.5802 11.0386 15.7402 11.0386 15.7402Z" fill="black"/>
<path opacity="0.1" d="M10.6386 17.7602V19.1602C10.6386 19.1602 11.9786 19.4602 12.2186 20.3602C12.4586 21.2602 12.2386 23.6602 12.3986 25.4202C12.5586 27.2002 12.6786 29.9802 12.6786 29.9802H14.2386C14.2386 29.9802 14.0186 26.1002 14.0786 23.4002C14.1386 20.7002 14.3386 19.7402 13.9786 18.6802C13.6186 17.6202 12.5186 16.8402 11.6386 16.1602C11.6186 16.1802 11.5586 16.9202 10.6386 17.7602Z" fill="black"/>
<path opacity="0.1" d="M22.4785 16.5203C22.4785 16.5203 21.8185 15.7003 20.3985 15.9203C20.3985 15.9203 19.5985 17.3803 19.5985 18.4203C19.5985 19.4603 19.5985 30.0003 19.5985 30.0003H20.9585L21.2985 21.8203C21.2985 21.8203 20.5185 20.6803 21.0385 18.6403C21.3985 17.2003 22.4785 16.5203 22.4785 16.5203Z" fill="black"/>
</g>
<defs>
<clipPath id="clip0_1332_4589">
<rect width="30" height="30" fill="white" transform="translate(0.978516)"/>
</clipPath>
</defs>
</svg>
