<svg width="24" height="24" viewBox="0 0 24 24" fill="none" xmlns="http://www.w3.org/2000/svg">
<path fill-rule="evenodd" clip-rule="evenodd" d="M6 4C5.44772 4 5 4.44772 5 5V19C5 19.5523 5.44772 20 6 20H18C18.5523 20 19 19.5523 19 19V12C19 11.4477 19.4477 11 20 11C20.5523 11 21 11.4477 21 12V19C21 20.6569 19.6569 22 18 22H6C4.34315 22 3 20.6569 3 19V5C3 3.34315 4.34315 2 6 2H12C12.5523 2 13 2.44772 13 3C13 3.55228 12.5523 4 12 4H6Z" fill="#9F9F9F"/>
<path d="M15.6066 4.12135L14.2573 5.47058L18.5 9.71322L19.8492 8.364C21.0208 7.19242 21.0208 5.29293 19.8492 4.12136C18.6776 2.94978 16.7781 2.94978 15.6066 4.12135Z" fill="#9F9F9F"/>
<path d="M8.44125 16.6607L11.7411 16.1893C11.9553 16.1587 12.1538 16.0594 12.3068 15.9064L18.5 9.71322L14.2574 5.47058L8.06413 11.6638C7.91113 11.8168 7.81188 12.0153 7.78128 12.2295L7.30988 15.5293C7.2156 16.1893 7.78128 16.755 8.44125 16.6607Z" fill="black"/>
</svg>
