<svg width="31" height="30" viewBox="0 0 31 30" fill="none" xmlns="http://www.w3.org/2000/svg">
<g clip-path="url(#clip0_1332_4521)">
<path d="M23.9387 8.07834C23.9387 8.07834 23.2187 7.95924 22.6587 7.60195C22.0987 7.24465 21.0987 6.29187 21.0987 6.29187L20.6187 6.80796C20.6187 6.80796 21.5387 7.80044 22.3187 8.17759C23.0987 8.55473 23.4987 8.65398 23.9387 8.71353C24.3987 8.79292 23.9387 8.07834 23.9387 8.07834Z" fill="#022F8E"/>
<path d="M24.3987 9.408C23.8987 9.13011 24.0787 8.51477 24.0787 8.51477C24.0787 8.51477 23.7787 7.91928 24.2187 7.54213C24.6587 7.16499 25.3187 6.768 26.6387 6.62905C27.6987 6.5298 27.7387 7.08559 27.8787 7.32379C27.9187 7.38334 27.9787 7.42304 28.0587 7.42304H28.2787L28.3987 8.65371L28.1787 8.69341C28.0987 8.71326 28.0387 8.75296 28.0187 8.81251C27.9187 9.07056 27.9987 9.70575 26.9387 9.80499C25.6187 9.92409 24.9187 9.6859 24.3987 9.408Z" fill="#93C6E7"/>
<path opacity="0.2" d="M28.0589 7.40328C27.9789 7.40328 27.9189 7.36358 27.8789 7.30403C27.7389 7.08569 27.6789 6.51005 26.6389 6.6093C26.6389 6.6093 27.1589 7.10554 27.1589 7.32388C27.1589 7.46283 26.9189 7.68118 26.9189 7.76057C26.9189 7.93922 27.0989 8.15757 27.0389 8.19727C26.9789 8.25682 26.7189 8.49501 26.7589 8.71336C26.7789 8.8523 25.3389 9.03095 24.8189 8.9317C24.2989 8.83245 24.0989 8.47516 24.0989 8.47516C24.0989 8.47516 23.9189 9.0905 24.4189 9.36839C24.9189 9.64629 25.6389 9.88448 26.9589 9.74554C28.0189 9.64629 27.9389 8.99125 28.0389 8.75306C28.0589 8.69351 28.1189 8.63396 28.1989 8.63396L28.4189 8.59426L28.2989 7.36358L28.0589 7.40328Z" fill="black"/>
<path d="M8.0189 8.07834C8.0189 8.07834 8.7389 7.95924 9.2989 7.60195C9.8589 7.24465 10.8589 6.29187 10.8589 6.29187L11.3389 6.80796C11.3389 6.80796 10.4189 7.80044 9.6389 8.17759C8.8589 8.55473 8.4589 8.65398 8.0189 8.71353C7.5589 8.79292 8.0189 8.07834 8.0189 8.07834Z" fill="#022F8E"/>
<path d="M7.55885 9.408C8.05885 9.13011 8.07885 8.51477 8.07885 8.51477C8.07885 8.51477 8.17885 7.91928 7.73885 7.54213C7.29885 7.16499 6.63885 6.768 5.31885 6.62905C4.25885 6.5298 4.21885 7.08559 4.07885 7.32379C4.03885 7.38334 3.97885 7.42304 3.89885 7.42304H3.67885L3.55885 8.65371L3.77885 8.69341C3.85885 8.71326 3.91885 8.75296 3.93885 8.81251C4.03885 9.07056 3.95885 9.70575 5.01885 9.80499C6.33885 9.92409 7.03885 9.6859 7.55885 9.408Z" fill="#93C6E7"/>
<path opacity="0.2" d="M3.65891 8.65356L3.77891 8.67341C3.85891 8.69326 3.91891 8.73296 3.93891 8.79251C4.03891 9.05055 3.95891 9.68574 5.01891 9.78499C6.33891 9.90409 7.05891 9.68574 7.55891 9.40785C8.05891 9.12995 8.07891 8.51461 8.07891 8.51461C8.07891 8.51461 8.09891 8.39551 8.07891 8.21687C8.07891 8.23672 7.89891 8.71311 7.49891 8.85206C7.09891 8.97115 5.61891 9.3086 4.85891 8.93145C4.21891 8.61386 4.21891 7.58168 4.09891 7.28394C4.09891 7.30379 4.07891 7.30379 4.07891 7.32363C4.05891 7.34348 4.03891 7.36333 4.01891 7.38318C3.93891 7.62138 3.81891 8.11762 3.65891 8.65356Z" fill="black"/>
<path d="M30.7998 4.78314C30.4798 3.67156 29.7198 2.99667 28.8998 2.81803C27.9598 2.59968 27.3998 2.91727 26.9398 3.53261C26.3998 4.26705 26.2598 4.66404 25.9398 4.66404C25.6198 4.66404 25.3998 4.34645 24.8198 4.68389C24.2398 5.02134 24.1598 5.79547 23.6398 5.79547C22.7198 5.79547 20.1198 1.66675 15.9798 1.66675C11.8398 1.66675 9.23984 5.81532 8.31984 5.81532C7.79984 5.81532 7.71984 5.04118 7.13984 4.70374C6.55984 4.3663 6.33984 4.68389 6.01984 4.68389C5.69984 4.68389 5.55984 4.2869 5.01984 3.55246C4.55984 2.91727 4.01984 2.61953 3.05984 2.83788C2.25984 3.01652 1.49984 3.67156 1.15984 4.80299C0.519838 7.0063 1.75984 8.69352 2.83984 9.15006C3.47984 9.42795 3.69984 9.20961 3.89984 8.79276C4.09984 8.35607 4.71984 7.0063 4.11984 7.0063C3.51984 7.0063 2.57984 6.03367 2.81984 4.96179C3.05984 3.88991 4.47984 4.22735 4.89984 4.76329C5.17984 5.12058 5.33984 5.59697 5.71984 5.63667C6.15984 5.69622 6.13984 5.61682 6.63984 5.61682C7.13984 5.61682 7.43984 6.8475 8.19984 6.94675C9.15984 7.06585 10.2398 6.11307 10.6398 6.11307C11.0398 6.11307 11.0598 8.29652 11.3598 9.5669C11.5998 10.5792 12.8398 12.6039 12.9198 13.378C12.9798 13.9537 12.5598 15.3034 12.6398 16.4349C12.7198 17.3877 13.4998 19.5314 13.5198 19.9086C13.5598 20.4643 13.5198 21.2385 13.5198 21.9531C13.5198 22.7669 14.0198 24.3549 14.0198 25.0298C14.0198 25.6649 13.7798 26.5185 14.0198 26.7567C14.2598 26.9949 15.4998 26.7765 15.9798 26.7765C16.4798 26.7765 17.7198 26.9949 17.9398 26.7567C18.1798 26.5185 17.9398 25.6649 17.9398 25.0298C17.9398 24.3549 18.4398 22.7471 18.4398 21.9531C18.4398 21.2186 18.3998 20.4643 18.4398 19.9086C18.4598 19.5314 19.2398 17.3877 19.3198 16.4349C19.4198 15.3034 18.9998 13.9537 19.0398 13.378C19.1198 12.6039 20.3598 10.5792 20.5998 9.5669C20.8998 8.29652 20.9198 6.11307 21.3198 6.11307C21.7198 6.11307 22.8198 7.06585 23.7598 6.94675C24.5398 6.8475 24.8398 5.61682 25.3198 5.61682C25.8198 5.61682 25.7998 5.69622 26.2398 5.63667C26.5998 5.59697 26.7798 5.10073 27.0598 4.76329C27.4798 4.22735 28.8998 3.90976 29.1398 4.96179C29.3798 6.03367 28.4398 7.0063 27.8398 7.0063C27.2398 7.0063 27.8398 8.35607 28.0598 8.79276C28.2598 9.22946 28.4798 9.42795 29.1198 9.15006C30.2198 8.67367 31.4398 6.98645 30.7998 4.78314Z" fill="#93C6E7"/>
<path d="M30.7988 4.78314C30.4788 3.67156 29.7188 2.99667 28.8988 2.81803C27.9588 2.59968 27.3988 2.91727 26.9388 3.53261C26.3988 4.26705 26.2588 4.66404 25.9388 4.66404C25.6188 4.66404 25.3988 4.34645 24.8188 4.68389C24.2388 5.02133 24.1588 5.79547 23.6388 5.79547C22.7188 5.79547 20.1188 1.66675 15.9788 1.66675C11.8388 1.66675 9.23882 5.81532 8.31883 5.81532C7.79883 5.81532 7.71882 5.04118 7.13882 4.70374C6.55882 4.3663 6.33882 4.68389 6.01883 4.68389C5.69882 4.68389 5.55883 4.2869 5.01883 3.55246C4.55883 2.91727 4.01882 2.61953 3.05882 2.83788C2.25882 3.01652 1.49883 3.67156 1.15883 4.80299C0.638825 6.58946 1.35882 8.03848 2.21882 8.77291C2.21882 8.77291 2.71882 9.26915 4.03882 9.62645C5.27882 9.94404 5.45882 9.84479 5.45882 9.84479C5.45882 9.84479 4.67882 9.4478 4.67882 9.22945C4.67882 9.01111 4.97882 8.93171 4.97882 8.75306C4.97882 8.57442 4.45882 8.41562 4.45882 8.23697C4.45882 8.05833 4.79882 7.95908 4.79882 7.80028C4.79882 7.64149 4.47882 7.60179 4.47882 7.40329C4.47882 7.20479 5.15882 6.62915 5.15882 6.62915C5.15882 6.62915 4.71882 6.54976 4.19882 6.66885C3.67882 6.7681 3.69882 6.86735 3.45882 6.70855C3.01882 6.33141 2.67882 5.67637 2.81882 4.98164C3.05882 3.90976 4.47882 4.2472 4.89882 4.78314C5.17882 5.14043 5.33882 5.61682 5.71882 5.65652C6.15882 5.71607 6.13882 5.63667 6.63882 5.63667C7.13882 5.63667 7.43882 6.86735 8.19882 6.9666C9.15882 7.0857 10.2388 6.13291 10.6388 6.13291C11.0388 6.13291 11.0588 8.31637 11.3588 9.58675C11.5988 10.5991 12.8388 12.6237 12.9188 13.3979C12.9788 13.9735 12.5588 15.3233 12.6388 16.4547C12.7188 17.4075 13.4988 19.5513 13.5188 19.9284C13.5588 20.4842 13.5188 21.2583 13.5188 21.9729C13.5188 22.7868 14.0188 24.3747 14.0188 25.0496C14.0188 25.6848 13.7788 26.5383 14.0188 26.7765C14.0988 26.8559 14.3188 26.8956 14.5988 26.8758C14.6788 26.4589 14.8188 25.5061 14.8188 25.2084C14.8188 24.8114 14.2988 23.0051 14.2988 22.1913C14.2988 21.3973 14.4588 20.0475 14.2988 19.5711C14.1388 19.1146 13.4788 17.1495 13.6588 16.951C13.8588 16.7525 15.1188 17.5067 15.3588 17.2686C15.5988 17.0304 15.6188 11.8099 15.4988 11.274C15.3788 10.738 13.0788 5.87487 12.5388 5.67637C11.9988 5.47788 11.4188 5.33893 10.2388 5.83517C9.07882 6.33141 8.53883 6.7284 8.17882 6.62915C7.81882 6.52991 7.29882 5.47788 6.77882 5.37863C6.25882 5.29923 5.83882 5.53743 5.67882 5.37863C5.51882 5.21983 5.25882 4.62434 4.93882 4.42585C4.63882 4.22735 4.09882 3.57231 3.15882 4.1281C2.21882 4.68389 2.45882 5.85502 2.95882 6.54976C2.97882 6.56961 2.99882 6.58946 2.99882 6.6093C3.01883 6.62915 3.01882 6.649 3.03882 6.649C3.05883 6.66885 3.05882 6.66885 3.07882 6.6887L3.09882 6.70855C3.53883 7.0857 3.59882 7.54224 3.57882 7.78043C3.51882 8.25682 2.99883 8.87216 2.33883 8.49502C1.91883 8.15758 1.53883 7.66133 1.35883 7.10555C1.07883 6.19246 1.17883 4.64419 2.11882 3.67156C3.05882 2.69893 4.01883 3.07607 4.51883 3.45321C5.01883 3.83036 5.59882 4.88239 5.89882 4.96179C6.19882 5.04118 6.31882 4.78314 6.65882 4.78314C6.99882 4.78314 7.87883 6.19246 8.27882 6.19246C8.67882 6.19246 9.83883 5.25953 10.7588 4.82284C11.7188 4.34645 15.9788 4.34645 15.9788 4.34645C15.9788 4.34645 20.2388 4.3663 21.1788 4.80299C22.0988 5.23968 23.2788 6.17261 23.6588 6.17261C24.0588 6.17261 24.9188 4.76329 25.2788 4.76329C25.6188 4.76329 25.7388 5.04118 26.0388 4.94194C26.3388 4.86254 26.8988 3.81051 27.4188 3.43336C27.9188 3.05622 28.8788 2.67908 29.8188 3.65171C30.7588 4.62434 30.8588 6.17261 30.5788 7.0857C30.3988 7.64149 30.0188 8.13773 29.5988 8.47517C28.9388 8.87216 28.4188 8.25682 28.3588 7.76058C28.3188 7.52239 28.3988 7.046 28.8388 6.6887L28.8588 6.66885C28.8788 6.649 28.8788 6.649 28.8988 6.62915C28.9188 6.6093 28.9188 6.58946 28.9388 6.58946C28.9588 6.56961 28.9788 6.54976 28.9788 6.52991C29.4788 5.85502 29.7188 4.66404 28.7788 4.10825C27.8388 3.55246 27.3188 4.2075 26.9988 4.406C26.6988 4.60449 26.4388 5.19998 26.2588 5.35878C26.0988 5.51758 25.6788 5.27938 25.1588 5.35878C24.6388 5.43818 24.1188 6.49021 23.7588 6.6093C23.3988 6.70855 22.8588 6.33141 21.6988 5.81532C20.5388 5.31908 19.9388 5.45803 19.3988 5.65652C18.8588 5.85502 16.5588 10.7182 16.4388 11.2541C16.3188 11.7901 16.3388 17.0105 16.5788 17.2487C16.8188 17.4869 18.0788 16.7326 18.2788 16.9311C18.4788 17.1296 17.7988 19.0749 17.6388 19.5513C17.4788 20.0078 17.6388 21.3576 17.6388 22.1714C17.6388 22.9852 17.1188 24.7916 17.1188 25.1886C17.1188 25.4863 17.2788 26.4391 17.3388 26.8559C17.6188 26.8758 17.8388 26.8162 17.9188 26.7368C18.1588 26.4986 17.9188 25.6451 17.9188 25.0099C17.9188 24.335 18.4188 22.7272 18.4188 21.9332C18.4188 21.1988 18.3788 20.4445 18.4188 19.8887C18.4388 19.5116 19.2188 17.3678 19.2988 16.415C19.3988 15.2836 18.9788 13.9338 19.0188 13.3582C19.0988 12.584 20.3388 10.5594 20.5788 9.54705C20.8788 8.27667 20.8988 6.09321 21.2988 6.09321C21.6988 6.09321 22.7988 7.046 23.7388 6.9269C24.5188 6.82765 24.8188 5.59697 25.2988 5.59697C25.7988 5.59697 25.7788 5.67637 26.2188 5.61682C26.5788 5.57712 26.7588 5.08088 27.0388 4.74344C27.4588 4.2075 28.8788 3.88991 29.1188 4.94194C29.2788 5.63667 28.9188 6.31156 28.4788 6.66885C28.2388 6.8078 28.2588 6.7284 27.7388 6.62915C27.2188 6.52991 26.7788 6.58946 26.7788 6.58946C26.7788 6.58946 27.4588 7.18494 27.4588 7.36359C27.4588 7.56209 27.1388 7.58194 27.1388 7.76058C27.1388 7.91938 27.4788 8.01863 27.4788 8.19728C27.4788 8.37592 26.9588 8.53472 26.9588 8.71337C26.9588 8.89201 27.2588 8.97141 27.2588 9.18976C27.2588 9.4081 26.4788 9.80509 26.4788 9.80509C26.4788 9.80509 26.6588 9.90434 27.8988 9.58675C29.2188 9.24931 29.7188 8.73321 29.7188 8.73321C30.5988 8.01863 31.3188 6.56961 30.7988 4.78314Z" fill="#022F8E"/>
</g>
<defs>
<clipPath id="clip0_1332_4521">
<rect width="30" height="30" fill="white" transform="translate(0.978516)"/>
</clipPath>
</defs>
</svg>
