<svg width="31" height="30" viewBox="0 0 31 30" fill="none" xmlns="http://www.w3.org/2000/svg">
<path d="M28.4452 10.6997C26.9151 3.90213 20.1426 -0.387124 13.345 1.14296C6.5474 2.67305 2.25814 9.47064 3.78823 16.2682C5.31831 23.0658 12.0908 27.3551 18.8884 25.825C19.4653 25.6996 20.0172 25.524 20.569 25.3233L26.8649 28.3333L25.3599 22.1127C28.1191 19.1528 29.3983 14.9388 28.4452 10.6997Z" fill="#022F8E"/>
<path opacity="0.1" d="M20.4942 12.1798C20.0176 12.1798 19.541 12.1798 19.0644 12.1798C18.6882 12.1798 18.3119 12.1798 17.9357 12.1798C17.2835 12.1798 17.2082 12.1046 17.2082 11.4775C17.2082 11.1013 17.2082 10.6999 17.2082 10.3237C17.2082 9.84708 17.2082 9.34542 17.2082 8.84375C17.1832 8.19158 16.9825 7.63975 16.6062 7.23841C16.2049 6.83708 15.6782 6.61133 15.0511 6.63641C13.8471 6.6615 13.0193 7.5645 13.0193 8.86883C13.0193 9.29525 13.0193 9.74675 13.0193 10.1732C13.0193 10.6247 13.0193 11.1013 13.0193 11.5528C13.0193 12.0544 12.919 12.1798 12.4173 12.1798C11.9658 12.1798 11.5143 12.1798 11.0628 12.1798C10.6113 12.1798 10.1598 12.1798 9.73339 12.1798C8.37889 12.2049 7.47589 13.0578 7.47589 14.2868C7.47589 15.5159 8.40398 16.3938 9.73339 16.3938C10.21 16.3938 10.7116 16.3938 11.1631 16.3938C11.5896 16.3938 11.9909 16.3938 12.4173 16.3938C12.919 16.3938 13.0193 16.4942 13.0193 17.0209C13.0193 17.4975 13.0193 17.9992 13.0193 18.4758C13.0193 18.852 13.0193 19.2032 13.0193 19.5794V19.6296C13.0193 19.8553 13.0193 20.1062 13.0946 20.3821C13.3203 21.3102 14.1732 21.9373 15.1263 21.9373C15.1765 21.9373 15.2267 21.9373 15.2517 21.9373C16.3052 21.862 17.1079 21.0844 17.1832 20.056C17.2082 19.4289 17.2082 18.8018 17.2082 18.1998C17.2082 17.8236 17.2082 17.4223 17.2082 17.0209C17.2082 16.4942 17.3086 16.4189 17.8353 16.3938C18.1112 16.3938 18.3872 16.3938 18.6882 16.3938C18.8387 16.3938 18.9641 16.3938 19.1146 16.3938C19.2651 16.3938 19.4156 16.3938 19.5661 16.3938C19.8922 16.3938 20.2182 16.3938 20.5443 16.3938C21.8737 16.3688 22.8018 15.4658 22.8018 14.2618C22.7767 13.0578 21.8236 12.2049 20.4942 12.1798Z" fill="black"/>
<path d="M21.4974 10.9256C21.0208 10.9256 20.5442 10.9256 20.0676 10.9256C19.6914 10.9256 19.3151 10.9256 18.9389 10.9256C18.2867 10.9256 18.2115 10.8503 18.2115 10.2232C18.2115 9.84698 18.2115 9.44564 18.2115 9.06939C18.2115 8.59281 18.2115 8.09114 18.2115 7.58948C18.1864 6.93731 17.9857 6.38547 17.6095 5.98414C17.2081 5.58281 16.6814 5.35706 16.0543 5.38214C14.8503 5.40722 14.0226 6.31022 14.0226 7.61456C14.0226 8.04098 14.0226 8.49248 14.0226 8.91889C14.0226 9.37039 14.0226 9.84698 14.0226 10.2985C14.0226 10.8001 13.9222 10.9256 13.4206 10.9256C12.969 10.9256 12.5175 10.9256 12.066 10.9256C11.6145 10.9256 11.163 10.9256 10.7366 10.9256C9.38213 10.9506 8.47913 11.8035 8.47913 13.0326C8.47913 14.2616 9.40721 15.1396 10.7366 15.1396C11.2132 15.1396 11.7149 15.1396 12.1664 15.1396C12.5928 15.1396 12.9941 15.1396 13.4206 15.1396C13.9222 15.1396 14.0226 15.2399 14.0226 15.7667C14.0226 16.2432 14.0226 16.7449 14.0226 17.2215C14.0226 17.5977 14.0226 17.9489 14.0226 18.3252V18.3753C14.0226 18.6011 14.0226 18.8519 14.0978 19.1278C14.3236 20.0559 15.1764 20.683 16.1296 20.683C16.1797 20.683 16.2299 20.683 16.255 20.683C17.3085 20.6077 18.1111 19.8302 18.1864 18.8017C18.2115 18.1747 18.2115 17.5476 18.2115 16.9456C18.2115 16.5693 18.2115 16.168 18.2115 15.7667C18.2115 15.2399 18.3118 15.1647 18.8386 15.1396C19.1145 15.1396 19.3904 15.1396 19.6914 15.1396C19.8419 15.1396 19.9673 15.1396 20.1178 15.1396C20.2683 15.1396 20.4188 15.1396 20.5693 15.1396C20.8954 15.1396 21.2215 15.1396 21.5476 15.1396C22.877 15.1145 23.8051 14.2115 23.8051 13.0075C23.78 11.8035 22.8268 10.9506 21.4974 10.9256Z" fill="#94C6E7"/>
</svg>
