<svg width="20" height="20" viewBox="0 0 20 20" fill="none" xmlns="http://www.w3.org/2000/svg">
<path opacity="0.4" d="M1.66669 10.7334V9.26669C1.66669 8.40003 2.37502 7.68336 3.25002 7.68336C4.75835 7.68336 5.37502 6.61669 4.61669 5.30836C4.18335 4.55836 4.44169 3.58336 5.20002 3.15003L6.64169 2.32503C7.30002 1.93336 8.15002 2.1667 8.54169 2.82503L8.63335 2.98336C9.38335 4.2917 10.6167 4.2917 11.375 2.98336L11.4667 2.82503C11.8584 2.1667 12.7084 1.93336 13.3667 2.32503L14.8084 3.15003C15.5667 3.58336 15.825 4.55836 15.3917 5.30836C14.6334 6.61669 15.25 7.68336 16.7584 7.68336C17.625 7.68336 18.3417 8.39169 18.3417 9.26669V10.7334C18.3417 11.6 17.6334 12.3167 16.7584 12.3167C15.25 12.3167 14.6334 13.3834 15.3917 14.6917C15.825 15.45 15.5667 16.4167 14.8084 16.85L13.3667 17.675C12.7084 18.0667 11.8584 17.8334 11.4667 17.175L11.375 17.0167C10.625 15.7084 9.39169 15.7084 8.63335 17.0167L8.54169 17.175C8.15002 17.8334 7.30002 18.0667 6.64169 17.675L5.20002 16.85C4.44169 16.4167 4.18335 15.4417 4.61669 14.6917C5.37502 13.3834 4.75835 12.3167 3.25002 12.3167C2.37502 12.3167 1.66669 11.6 1.66669 10.7334Z" fill="#00003F"/>
<path d="M10 12.7083C11.4958 12.7083 12.7084 11.4957 12.7084 9.99996C12.7084 8.50419 11.4958 7.29163 10 7.29163C8.50425 7.29163 7.29169 8.50419 7.29169 9.99996C7.29169 11.4957 8.50425 12.7083 10 12.7083Z" fill="#00003F"/>
</svg>
