<svg width="20" height="20" viewBox="0 0 20 20" fill="none" xmlns="http://www.w3.org/2000/svg">
<path opacity="0.4" d="M9.13337 1.71665L4.55004 3.43332C3.67504 3.76665 2.95837 4.79999 2.95837 5.74165V12.4917C2.95837 13.1667 3.40004 14.0583 3.94171 14.4583L8.52504 17.8833C9.33337 18.4917 10.6584 18.4917 11.4667 17.8833L16.05 14.4583C16.5917 14.05 17.0334 13.1667 17.0334 12.4917V5.74165C17.0334 4.80832 16.3167 3.76665 15.4417 3.44165L10.8584 1.72499C10.3917 1.54165 9.60837 1.54165 9.13337 1.71665Z" fill="#00003F"/>
<path d="M8.88328 11.8583C8.72495 11.8583 8.56662 11.8 8.44162 11.675L7.09995 10.3333C6.85828 10.0917 6.85828 9.69168 7.09995 9.45002C7.34162 9.20835 7.74162 9.20835 7.98328 9.45002L8.88328 10.35L12.025 7.20835C12.2666 6.96668 12.6666 6.96668 12.9083 7.20835C13.15 7.45002 13.15 7.85002 12.9083 8.09168L9.32495 11.675C9.19995 11.8 9.04162 11.8583 8.88328 11.8583Z" fill="#00003F"/>
</svg>
