<svg width="31" height="30" viewBox="0 0 31 30" fill="none" xmlns="http://www.w3.org/2000/svg">
<g clip-path="url(#clip0_1332_4554)">
<path d="M11.2586 11.8402L10.5386 12.3202C10.4386 9.36019 9.07862 7.94019 9.05862 7.92019L9.53862 7.32019C9.59862 7.40019 11.1186 8.70019 11.2586 11.8402Z" fill="#93C6E7"/>
<path d="M11.3585 9.83974C11.2585 7.57974 9.51847 6.77974 9.49847 6.77974L9.79847 5.97974C9.87847 6.01974 11.8785 6.83974 11.8785 9.31974L11.3585 9.83974Z" fill="#93C6E7"/>
<path d="M10.3783 22.28C9.37828 22.08 8.67828 21.64 8.29828 20.98C7.67828 19.9 8.11828 18.56 8.29828 17.98L8.33828 17.88C8.43828 17.56 8.71828 16.86 9.09828 15.98C9.99828 13.78 11.3783 10.46 11.6583 8.65998C12.0383 6.17998 9.85828 4.53998 9.83828 4.51998L10.5583 4.09998C10.6583 4.17998 13.0383 5.95998 12.5983 8.73998C12.2783 10.6 10.8983 13.96 9.97828 16.18C9.61828 17.04 9.29828 17.84 9.19828 18.14C9.03828 18.64 8.65828 19.84 9.15828 20.7C9.45828 21.22 10.4383 21.36 11.2983 21.54L10.3783 22.28Z" fill="#93C6E7"/>
<path d="M10.1184 4.40049C10.1184 4.40049 11.9984 4.36049 11.8784 2.74049C11.7984 1.38049 10.5384 0.000488281 8.55845 0.000488281C6.57845 0.000488281 3.41845 2.46049 2.83845 7.08049C2.25845 11.7005 6.35845 12.4805 8.03845 11.7805C9.71845 11.1005 10.0584 9.60049 9.23845 8.08049C9.23845 8.08049 10.5584 6.52049 10.1184 4.40049Z" fill="#022F8E"/>
<path opacity="0.2" d="M8.03845 11.78C8.31845 11.66 8.55845 11.52 8.77845 11.38C5.27845 12.74 2.61845 9.18003 3.41845 5.98003C3.91845 3.98003 5.07845 2.22003 5.87845 1.16003C4.47845 2.30003 3.19845 4.30003 2.83845 7.08004C2.25845 11.7 6.35845 12.46 8.03845 11.78Z" fill="black"/>
<path d="M9.61838 7.48033C9.61838 7.48033 9.17838 8.00033 8.61838 7.94033C8.03838 7.88033 7.77838 7.26033 7.85838 7.16033C7.91838 7.06033 8.21838 6.92033 8.19838 6.46033C8.19838 6.46033 7.99838 6.86033 7.63838 6.98033C7.63838 6.98033 6.99838 7.02033 6.71838 6.94033C6.71838 6.94033 7.25838 7.26033 7.55838 7.22033C7.55838 7.22033 7.63838 7.76033 8.01838 7.96033C8.01838 7.96033 7.21838 8.24033 6.87838 8.72033C6.87838 8.72033 8.07838 8.18033 8.43838 8.34033C8.79838 8.50033 9.33838 8.26033 9.33838 8.26033L9.23838 8.08033C9.23838 8.08033 9.47838 7.78033 9.61838 7.48033Z" fill="white"/>
<path d="M10.4385 4.36006C10.4385 4.36006 9.79854 4.14006 9.63854 3.56006C9.47854 2.98006 9.47854 2.56006 9.47854 2.56006C9.47854 2.56006 9.11854 3.04006 9.41854 3.82006C9.41854 3.82006 8.87854 4.10006 8.37854 3.82006C8.37854 3.82006 8.69854 4.38006 9.51854 4.14006C9.51854 4.14006 9.81854 4.56006 10.1785 4.62006L10.1185 4.40006C10.1185 4.40006 10.2785 4.38006 10.4385 4.36006Z" fill="white"/>
<path d="M20.6985 11.8402L21.4185 12.3202C21.5185 9.36019 22.8785 7.94019 22.8985 7.92019L22.4185 7.32019C22.3585 7.40019 20.8385 8.70019 20.6985 11.8402Z" fill="#93C6E7"/>
<path d="M20.5986 9.83974C20.6986 7.57974 22.4386 6.77974 22.4586 6.77974L22.1586 5.97974C22.0786 6.01974 20.0786 6.83974 20.0786 9.31974L20.5986 9.83974Z" fill="#93C6E7"/>
<path d="M21.5786 22.28C22.5786 22.08 23.2786 21.64 23.6586 20.98C24.2786 19.9 23.8386 18.56 23.6586 17.98L23.6186 17.88C23.5186 17.56 23.2386 16.86 22.8586 15.98C21.9586 13.78 20.5786 10.46 20.2986 8.65998C19.9186 6.17998 22.0986 4.53998 22.1186 4.51998L21.3986 4.09998C21.2986 4.17998 18.9186 5.95998 19.3586 8.73998C19.6386 10.6 21.0386 13.96 21.9386 16.18C22.2986 17.04 22.6186 17.84 22.7186 18.14C22.8786 18.64 23.2586 19.84 22.7586 20.7C22.4586 21.22 21.6786 21.36 20.8186 21.54L21.5786 22.28Z" fill="#93C6E7"/>
<path d="M21.8387 4.4C21.8387 4.4 19.9587 4.36 20.0787 2.74C20.1587 1.38 21.4187 0 23.3987 0C25.3787 0 28.5587 2.46 29.1387 7.08C29.7187 11.7 25.6187 12.48 23.9387 11.78C22.2587 11.1 21.9187 9.6 22.7387 8.08C22.7187 8.08 21.3987 6.52 21.8387 4.4Z" fill="#022F8E"/>
<path opacity="0.2" d="M23.9186 11.7799C23.6386 11.6599 23.3986 11.5199 23.1786 11.3799C26.6786 12.7399 29.3386 9.17991 28.5386 5.97991C28.0386 3.97991 26.8786 2.21991 26.0786 1.15991C27.4786 2.29991 28.7586 4.29991 29.1186 7.07991C29.6986 11.6999 25.5986 12.4599 23.9186 11.7799Z" fill="black"/>
<path d="M22.3387 7.48033C22.3387 7.48033 22.7787 8.00033 23.3387 7.94033C23.9187 7.88033 24.1787 7.26033 24.0987 7.16033C24.0387 7.06033 23.7387 6.92033 23.7587 6.46033C23.7587 6.46033 23.9587 6.86033 24.3187 6.98033C24.3187 6.98033 24.9587 7.02033 25.2387 6.94033C25.2387 6.94033 24.6987 7.26033 24.3987 7.22033C24.3987 7.22033 24.3187 7.76033 23.9387 7.96033C23.9387 7.96033 24.7387 8.24033 25.0787 8.72033C25.0787 8.72033 23.8787 8.18033 23.5187 8.34033C23.1587 8.50033 22.6187 8.26033 22.6187 8.26033L22.7187 8.08033C22.7187 8.08033 22.4787 7.78033 22.3387 7.48033Z" fill="white"/>
<path d="M21.5184 4.36006C21.5184 4.36006 22.1584 4.14006 22.3184 3.56006C22.4784 2.98006 22.4784 2.56006 22.4784 2.56006C22.4784 2.56006 22.8384 3.04006 22.5384 3.82006C22.5384 3.82006 23.0784 4.10006 23.5784 3.82006C23.5784 3.82006 23.2584 4.38006 22.4384 4.14006C22.4384 4.14006 22.1384 4.56006 21.7784 4.62006L21.8184 4.40006C21.8384 4.40006 21.6784 4.38006 21.5184 4.36006Z" fill="white"/>
<path d="M15.9386 18.8798C12.7386 18.8798 10.1586 20.7598 10.1586 23.0798C10.1586 24.9398 11.6386 26.4998 13.9386 27.0598C14.4786 27.1798 14.9186 27.5398 15.0986 28.0198C15.1186 28.0798 15.1386 28.1598 15.1586 28.2398C15.3386 29.0998 15.3386 29.9998 15.3386 29.9998H16.2786H16.6786C16.6786 29.9998 16.6786 29.0998 16.8586 28.2398C16.8786 28.1598 16.8986 28.0998 16.9186 28.0198C17.0986 27.5398 17.5586 27.1798 18.0786 27.0598C20.3786 26.4998 21.6786 24.9398 21.6786 23.0798C21.7186 20.7598 19.1386 18.8798 15.9386 18.8798Z" fill="#022F8E"/>
<path opacity="0.2" d="M15.9385 18.8796C15.7585 18.8796 15.5785 18.8796 15.3985 18.8996C18.3385 19.0996 20.6385 20.8996 20.6385 23.0796C20.6385 24.7196 19.6785 26.1596 17.7785 26.8396C17.2185 27.0396 16.7585 27.4796 16.5585 28.0196C16.5585 28.0196 16.5585 28.0196 16.5585 28.0396C16.5385 28.0996 16.5185 28.1796 16.4985 28.2596C16.3185 29.1196 16.3185 30.0196 16.3185 30.0196H16.7185C16.7185 30.0196 16.7185 29.1196 16.8985 28.2596C16.9185 28.1796 16.9385 28.1196 16.9585 28.0396C17.1385 27.5596 17.5985 27.1996 18.1185 27.0796C20.4185 26.5196 21.7185 24.9596 21.7185 23.0996C21.7185 20.7596 19.1385 18.8796 15.9385 18.8796Z" fill="black"/>
</g>
<defs>
<clipPath id="clip0_1332_4554">
<rect width="30" height="30" fill="white" transform="translate(0.978516)"/>
</clipPath>
</defs>
</svg>
