<svg width="20" height="20" viewBox="0 0 20 20" fill="none" xmlns="http://www.w3.org/2000/svg">
<path d="M13.875 16.8334V17.075C12.6416 17.8667 11.1666 18.3334 9.58331 18.3334C7.97498 18.3334 6.47498 17.85 5.22498 17.025V16.8334C5.22498 14.8917 7.16664 13.3083 9.54997 13.3083C11.9416 13.3083 13.875 14.8917 13.875 16.8334Z" fill="#00003F"/>
<path opacity="0.4" d="M17.5 10.4167C17.5 13.2083 16.0584 15.6583 13.875 17.075V16.8333C13.875 14.8917 11.9417 13.3083 9.55002 13.3083C7.16669 13.3083 5.22502 14.8917 5.22502 16.8333V17.025C3.08335 15.6083 1.66669 13.1833 1.66669 10.4167C1.66669 6.04167 5.20835 2.5 9.58335 2.5C10.675 2.5 11.7167 2.71666 12.6667 3.11666C12.5584 3.44999 12.5 3.8 12.5 4.16667C12.5 4.79167 12.675 5.38333 12.9834 5.88333C13.15 6.16666 13.3667 6.42498 13.6167 6.64164C14.2 7.17498 14.975 7.5 15.8334 7.5C16.2 7.5 16.55 7.44165 16.875 7.32498C17.275 8.27498 17.5 9.325 17.5 10.4167Z" fill="#00003F"/>
<path d="M18.3083 1.94172C17.7083 1.25839 16.8167 0.833374 15.8333 0.833374C14.9 0.833374 14.05 1.21673 13.4417 1.84173C13.0917 2.20006 12.825 2.63337 12.6667 3.1167C12.5583 3.45003 12.5 3.80004 12.5 4.16671C12.5 4.79171 12.675 5.38337 12.9833 5.88337C13.15 6.16671 13.3667 6.42502 13.6167 6.64168C14.2 7.17502 14.975 7.50004 15.8333 7.50004C16.2 7.50004 16.55 7.44169 16.875 7.32502C17.6417 7.08336 18.2833 6.55837 18.6833 5.88337C18.8583 5.60004 18.9917 5.27503 19.0667 4.9417C19.1333 4.6917 19.1667 4.43337 19.1667 4.16671C19.1667 3.31671 18.8417 2.53339 18.3083 1.94172ZM17.075 4.77502H16.4583V5.42505C16.4583 5.76672 16.175 6.05005 15.8333 6.05005C15.4917 6.05005 15.2083 5.76672 15.2083 5.42505V4.77502H14.5917C14.25 4.77502 13.9667 4.49169 13.9667 4.15002C13.9667 3.80836 14.25 3.52502 14.5917 3.52502H15.2083V2.93339C15.2083 2.59172 15.4917 2.30839 15.8333 2.30839C16.175 2.30839 16.4583 2.59172 16.4583 2.93339V3.52502H17.075C17.4167 3.52502 17.7 3.80836 17.7 4.15002C17.7 4.49169 17.425 4.77502 17.075 4.77502Z" fill="#00003F"/>
<path d="M9.54998 12.275C10.8432 12.275 11.8916 11.2266 11.8916 9.93334C11.8916 8.64007 10.8432 7.59167 9.54998 7.59167C8.25671 7.59167 7.20831 8.64007 7.20831 9.93334C7.20831 11.2266 8.25671 12.275 9.54998 12.275Z" fill="#00003F"/>
</svg>
